$MeshFormat
2.2 0 8
$EndMeshFormat
$Nodes
723
1 5 2.5 0
2 0 2.5 0
3 0.2083333333329199 2.5 0
4 0.4166666666658398 2.5 0
5 0.6249999999987598 2.5 0
6 0.8333333333316797 2.5 0
7 1.0416666666646 2.5 0
8 1.24999999999752 2.5 0
9 1.458333333330682 2.5 0
10 1.666666666663845 2.5 0
11 1.874999999997008 2.5 0
12 2.08333333333017 2.5 0
13 2.291666666663333 2.5 0
14 2.499999999996496 2.5 0
15 2.708333333330121 2.5 0
16 2.916666666663747 2.5 0
17 3.124999999997372 2.5 0
18 3.333333333330997 2.5 0
19 3.541666666664623 2.5 0
20 3.749999999998248 2.5 0
21 3.958333333331873 2.5 0
22 4.166666666665499 2.5 0
23 4.374999999999124 2.5 0
24 4.58333333333275 2.5 0
25 4.791666666666375 2.5 0
26 5 -2.5 0
27 5 2.291666666666869 0
28 5 2.083333333333738 0
29 5 1.875000000000607 0
30 5 1.666666666667476 0
31 5 1.458333333334345 0
32 5 1.250000000001214 0
33 5 1.041666666668141 0
34 5 0.8333333333350679 0
35 5 0.6250000000019948 0
36 5 0.4166666666689214 0
37 5 0.2083333333358484 0
38 5 2.775280005806735e-12 0
39 5 -0.2083333333307608 0
40 5 -0.416666666664296 0
41 5 -0.6249999999978317 0
42 5 -0.8333333333313675 0
43 5 -1.041666666664903 0
44 5 -1.249999999998439 0
45 5 -1.458333333332033 0
46 5 -1.666666666665626 0
47 5 -1.87499999999922 0
48 5 -2.083333333332813 0
49 5 -2.291666666666407 0
50 0 -2.5 0
51 4.791666666666725 -2.5 0
52 4.583333333333449 -2.5 0
53 4.375000000000173 -2.5 0
54 4.166666666666898 -2.5 0
55 3.958333333333623 -2.5 0
56 3.750000000000347 -2.5 0
57 3.541666666667072 -2.5 0
58 3.333333333333796 -2.5 0
59 3.12500000000052 -2.5 0
60 2.916666666667245 -2.5 0
61 2.708333333333969 -2.5 0
62 2.500000000000694 -2.5 0
63 2.291666666667418 -2.5 0
64 2.083333333334143 -2.5 0
65 1.875000000000868 -2.5 0
66 1.666666666667592 -2.5 0
67 1.458333333334317 -2.5 0
68 1.250000000001041 -2.5 0
69 1.041666666667534 -2.5 0
70 0.8333333333340276 -2.5 0
71 0.6250000000005207 -2.5 0
72 0.4166666666670138 -2.5 0
73 0.2083333333335069 -2.5 0
74 0 -2.291666666666869 0
75 0 -2.083333333333738 0
76 0 -1.875000000000607 0
77 0 -1.666666666667476 0
78 0 -1.458333333334345 0
79 0 -1.250000000001214 0
80 0 -1.041666666668141 0
81 0 -0.8333333333350679 0
82 0 -0.6250000000019948 0
83 0 -0.4166666666689214 0
84 0 -0.2083333333358484 0
85 0 -2.775280005806735e-12 0
86 0 0.2083333333307608 0
87 0 0.416666666664296 0
88 0 0.6249999999978317 0
89 0 0.8333333333313675 0
90 0 1.041666666664903 0
91 0 1.249999999998439 0
92 0 1.458333333332033 0
93 0 1.666666666665626 0
94 0 1.87499999999922 0
95 0 2.083333333332813 0
96 0 2.291666666666407 0
97 2.10585862529889 -0.4497822772045122 0
98 4.052712932681944 -0.1596967632134094 0
99 1.766242495754464 -1.723185224064478 0
100 2.823242882410593 1.326784825645032 0
101 1.072079172724074 0.5812008605522646 0
102 0.8840640242388437 -1.197807493309353 0
103 3.930992415736534 0.8539812470119212 0
104 3.593353552133538 -1.61344988932971 0
105 1.493913507388251 1.554591686491768 0
106 0.9235840077652774 -1.438478091476142 0
107 3.972875449795997 1.456499626108458 0
108 4.136913308642949 1.62559510991881 0
109 4.091898428656874 -1.604826044949824 0
110 0.8647519305755669 -1.665842091298597 0
111 0.7236785529281571 -1.8077218797843 0
112 0.3043651717031045 -2.357133269514176 0
113 4.70365580412865 2.352618768806501 0
114 3.454982205064021 0.5692547143333357 0
115 1.820384316888539 0.9333286913093118 0
116 2.400601958897148 -1.804142572133111 0
117 1.146739542176265 -0.1793826483411595 0
118 2.509651721085479 0.3736855332758324 0
119 3.156762506100307 -0.2894438320704813 0
120 2.906179665469465 -1.154279812634765 0
121 3.100236337523202 -1.992459951628466 0
122 0.5360964099296951 -0.6881477958805887 0
123 2.000289891051882 -1.235699218296931 0
124 1.322886354394031 -0.9055266961734892 0
125 4.615052113554894 0.1571502332232602 0
126 0.4639977439350544 -1.109637881647996 0
127 1.870444141838968 2.136893403857707 0
128 3.456459860435437 -2.034660417780495 0
129 0.4392015069289915 0.1639038119171085 0
130 4.340973219556997 1.224063642234006 0
131 3.245859667614113 1.794996041694086 0
132 2.536337816055165 2.133692727228957 0
133 2.946450779307143 2.074208009880171 0
134 0.5392702988381878 -1.26735349207034 0
135 3.754455440690563 -1.912696337798031 0
136 1.287141165723844 1.952588316082254 0
137 1.303831241611245 -1.915980366533816 0
138 4.446391264966096 -1.208387150700788 0
139 3.803561108362004 1.811646030969934 0
140 0.5836712512854784 1.230535410565923 0
141 4.581738081147294 -0.3014864916463597 0
142 0.4970087370055955 0.7309003611610553 0
143 2.119557289973867 -2.184661764971308 0
144 4.629327891332181 -0.7211907840376064 0
145 4.521949786061604 1.601629088895203 0
146 0.9144658083644392 -2.07272646465041 0
147 4.554541525432438 -1.575706910617065 0
148 4.116513786762387 2.086473071069315 0
149 3.837135754022381 -0.937942255428272 0
150 3.577116980426904 1.339231966418405 0
151 1.552463783836404 -2.292115186227746 0
152 1.376075265181335 -1.447316613560166 0
153 0.7741866141007488 2.15453226623934 0
154 4.281075965149197 -2.183702136975769 0
155 0.7180739247314696 -2.174606518042923 0
156 4.293539824504772 2.186174249276749 0
157 1.082085093150718 1.118551610985866 0
158 4.81626974538339 -1.985710526378852 0
159 0.5369632149142307 -2.317349071791535 0
160 4.468701462480895 2.307624211533419 0
161 0.1731794026236641 1.96555542797798 0
162 4.636604365768211 -2.292410057846259 0
163 0.3486638222396322 2.311328038249512 0
164 4.434781779833115 -2.137699743521727 0
165 0.3573800932975068 -1.955370911949138 0
166 4.524549125035828 1.980756332510801 0
167 0.5706335851345269 2.168788875342811 0
168 2.300758809849586 1.138278112755835 0
169 2.663918679808172 -0.3669572447146628 0
170 2.53946197164082 -0.7822291316045619 0
171 1.579239918914143 -0.3116427273940706 0
172 2.657166414138263 0.8157356816995649 0
173 3.742285785440744 0.1884623883057104 0
174 2.980589163285382 0.4736408025295716 0
175 3.112473630189596 0.9197165040273854 0
176 0.4352127996115601 -0.22522695521673 0
177 3.495981432472674 -0.6224829196476328 0
178 3.375415373830358 -1.004364963481013 0
179 2.823077719683334 0.04749093601138025 0
180 2.999408513716801 -1.602283958904825 0
181 3.026020722228672 -0.7020644341916064 0
182 1.666687365731493 -0.6823066135838048 0
183 0.9586026580368058 -0.7885417596796026 0
184 2.406010386145967 -1.162716847148812 0
185 3.622236253686809 -0.2253601335550738 0
186 2.193275910315724 0.6812398581861588 0
187 2.700713866369035 1.729858221298102 0
188 3.300995207369063 0.1247336853108943 0
189 2.346028803234903 -0.02793511155658768 0
190 4.234238501118647 -0.8053124752747075 0
191 2.960552288332483 1.909839337929046 0
192 2.071215068527108 -0.8895514811354494 0
193 2.457907398840838 1.506346354570631 0
194 1.437484316124381 0.6984873638008849 0
195 3.477464248116199 1.017741874856813 0
196 0.8427659180221126 -0.4068027730803832 0
197 0.7877020677892314 -0.01892087988077251 0
198 1.669880285862317 1.84646740632983 0
199 0.7753900712813365 0.3289653012937956 0
200 2.520575952692174 -2.162393113758012 0
201 1.683722505821294 -1.034101113740889 0
202 3.309126715509382 -1.390094642944467 0
203 1.472285731465802 0.03801245719364027 0
204 3.20298631376105 1.636795326964919 0
205 1.407464256438295 1.075044018273204 0
206 2.07333898221742 0.2917634123205746 0
207 1.882770129942072 -0.03744451955756001 0
208 2.623414370988722 -1.503891735717081 0
209 1.246322235621732 -0.5462116242480642 0
210 4.387188860653343 -0.4272688069505636 0
211 0.7793681205127999 0.7035554253748542 0
212 0.7857815280793273 0.9582511770829366 0
213 1.58758752123122 -1.337916859873891 0
214 2.297562556886807 1.796458016370008 0
215 3.933989209147899 -0.539070415968896 0
216 1.109520937756882 0.1771889996080729 0
217 2.74689918091337 -1.8815776511101 0
218 4.353397832753424 0.8351153520541628 0
219 4.373237895432864 0.01878241600653593 0
220 1.780060227665231 0.5371258352071381 0
221 3.762281714451114 0.8492425945798139 0
222 0.6328195863652689 -0.9889419729158734 0
223 4.229352195775854 -1.115593101456165 0
224 1.434067880286343 0.3684780840703495 0
225 4.213833596608683 0.1757843852037186 0
226 3.27553408718897 1.293587836737224 0
227 2.011314358258967 -1.956720213982388 0
228 3.931432582510608 0.4835670482778945 0
229 4.37519547423461 0.2754639653550453 0
230 3.623879077300878 -1.251901527812203 0
231 1.600772200465611 2.023422426937428 0
232 2.24293447628581 -1.486604604201508 0
233 2.264415143937961 -1.980182786687049 0
234 3.550817833183043 -1.840667879046457 0
235 4.389993834277366 -0.2134256408125388 0
236 4.67068710203257 1.0091016197431 0
237 3.929348346248593 2.16206121030271 0
238 2.824304541146127 -2.195832597116463 0
239 4.424255958944308 1.02958054296415 0
240 4.342897344192206 0.4765785441773651 0
241 1.316333467763278 1.264172175169775 0
242 3.634670933878975 1.659697978139322 0
243 3.760061416256468 2.225502732050077 0
244 1.108149985806312 -2.246683504549498 0
245 1.340883615728115 -2.28645875863256 0
246 4.592540153826744 0.4333069195388494 0
247 1.351305477601439 -1.238357897037387 0
248 3.377672903124634 2.183888794013382 0
249 1.832388843044765 -2.012646203673943 0
250 4.548237342282357 -0.9598868664535282 0
251 4.037983527795341 0.6755157060142706 0
252 1.110186118859401 0.8676498517747258 0
253 1.151262526155554 1.660172651173731 0
254 0.7872536943014968 1.182162309188873 0
255 3.83173575930005 -2.219782403134134 0
256 0.5275436984859415 0.9981616129986333 0
257 4.232929768218834 -1.363711210777689 0
258 1.358611902085346 2.32140570645512 0
259 0.3673388956632598 -1.326454316292851 0
260 0.4525985451336856 0.4897050346210172 0
261 1.530876706203018 -1.547836210425703 0
262 1.105918197976056 -1.745100022154346 0
263 2.208631646911979 2.272578557676289 0
264 1.40287219499599 1.748677705377425 0
265 1.379034520445633 -1.679016703763641 0
266 0.7108514050374268 -1.516522664480127 0
267 1.193740270888827 -1.064681875782071 0
268 0.6701763881201129 -1.159237934399886 0
269 4.779696841770088 -0.9320726999519545 0
270 3.892488048338979 -1.761251750453625 0
271 4.097199410750455 2.306254841661075 0
272 0.8739653627314711 -2.307705398678938 0
273 0.2306783685666818 -1.560333598849384 0
274 0.7808579038908089 1.379012165469132 0
275 4.756098078015113 -1.57463988869891 0
276 0.9349048236535777 2.262150540396719 0
277 4.068484657309365 -2.252007190836117 0
278 4.22093003703587 1.038973773474436 0
279 2.723551198982085 2.116684857157912 0
280 3.888349020947757 1.640616114702825 0
281 2.823369237595642 2.311329760355511 0
282 1.513468284961695 -1.887506395494675 0
283 3.712479569932918 -1.724269852119596 0
284 4.227052510116662 1.399449776685097 0
285 0.2099666176539403 -0.9202446556666232 0
286 4.782486633817483 1.567208454342268 0
287 4.079953971051911 -1.816383737240955 0
288 4.369378275125924 -1.545822525373684 0
289 1.421181908092855 -2.087508324152504 0
290 4.170914580866139 1.854828123729248 0
291 1.237305736877569 1.483696247237059 0
292 4.601118255676409 -0.49665343447014 0
293 0.6969259301591614 -1.333227865733168 0
294 0.9714840234936629 1.249900247634058 0
295 1.09447132657915 -1.991683640139846 0
296 3.816335762054667 -1.54358338638143 0
297 3.298289444948908 -2.107182096589736 0
298 0.1897393597843476 0.7858616949551024 0
299 3.735368585411348 1.444650315819327 0
300 4.611722959136169 -0.07261403513413071 0
301 4.55855905294999 -1.425887931113395 0
302 3.480501595088028 -2.263811990686343 0
303 3.10469321162499 1.959177422887192 0
304 0.2052537606397688 0.1274777036782258 0
305 1.113516630490512 2.088311304747338 0
306 3.948040468522569 1.970628072921598 0
307 4.451963935316068 1.39620972390582 0
308 3.033505015566204 2.302506867520125 0
309 4.79186396569071 -0.5615356287321266 0
310 0.9263398572935291 -1.865300734060205 0
311 4.570334233283524 1.202245369033063 0
312 4.668239357985775 1.380370212593216 0
313 3.608535129745383 -2.061625520086622 0
314 4.784730261215104 -0.2315646672804655 0
315 0.4475464934502146 -0.9020409052581189 0
316 4.80028883370142 1.182112112752288 0
317 4.833526190258076 0.1107527219809611 0
318 0.1312595968967908 1.752060413423281 0
319 4.78811079920123 -1.790010870668312 0
320 1.770648291385002 -2.307950914654797 0
321 0.7133276983974192 -2.361006579699823 0
322 4.282169080181417 2.353662074768264 0
323 3.953818438006313 -1.998628586054637 0
324 4.85056812127101 1.366730451045644 0
325 0.7212994061425902 -1.973238295595966 0
326 0.5527643981974643 -1.875979598069173 0
327 0.1614453497071516 -2.226344409184267 0
328 4.643936503262243 2.199593379064062 0
329 0.1922958456994407 -1.810446300106236 0
330 4.42382607665624 -2.31624461706265 0
331 0.701036738827017 1.993083032322877 0
332 4.859918667279423 1.817246662906385 0
333 4.631064489244456 1.798636277217779 0
334 4.648019528491287 -1.902060087423429 0
335 4.215711025370323 -2.00622325236339 0
336 0.535570017881695 -2.094016372314414 0
337 4.451628950937065 2.11403898870239 0
338 4.837097642556893 -2.351565891134606 0
339 0.6213519231730206 -1.682923727647271 0
340 4.538656812588917 -1.72779566770319 0
341 0.5033746759793455 -1.493482610587425 0
342 4.824710163431415 -2.190293535057664 0
343 2.564317065147777 1.210371889902407 0
344 2.731134899654223 1.053026875533943 0
345 2.327426623457264 -0.5924912651926133 0
346 2.431696926237777 -0.3967110057534304 0
347 1.793460052013037 -0.364252775789303 0
348 2.723546258116377 -0.9533542385336107 0
349 2.065260038894678 1.012523791686518 0
350 2.966212368185431 1.104297544688683 0
351 2.914042290523347 -0.327517456333089 0
352 1.874988373540451 -0.5509626095091035 0
353 2.633189611220104 -1.148287853930563 0
354 2.84785367841235 -0.5344369718975954 0
355 0.1764764235494307 0.9814469220544887 0
356 3.265172093466848 0.7428125699922781 0
357 2.743023985162625 0.4251200460333577 0
358 3.152804442704836 -1.065832472104479 0
359 3.588210607025772 0.358387939963445 0
360 0.2079342896790304 0.4650237894017741 0
361 2.293217210306443 -0.8237894914572799 0
362 3.0649584501449 0.08919165062193261 0
363 2.784883977808911 -0.7454138098946892 0
364 3.326700641963723 -0.4597148641516495 0
365 0.3233189494367925 -0.03951476129989119 0
366 2.418650667813439 0.7481700393192483 0
367 3.263882255549683 -0.6569243212564445 0
368 3.461909485659258 -0.05168980808599005 0
369 2.988019081272981 -0.120205245437617 0
370 2.583986628945933 0.00567891901570973 0
371 3.905130928082166 0.005585118713577905 0
372 2.247403006423784 -0.2509266070893935 0
373 2.486959263005891 0.9786893378034353 0
374 3.211774159284454 0.5206177871078838 0
375 1.357172406993811 -0.2498378265747196 0
376 3.139697513851702 0.3019791444916233 0
377 3.138955486239583 -1.277059423120772 0
378 0.5029530765911647 -0.4756865046469705 0
379 2.815806702412179 0.6439044090705349 0
380 2.948236940072704 1.48194366227263 0
381 3.393137681097496 -0.2559984657846393 0
382 2.582407426012919 0.5888094638907291 0
383 2.110274201353648 -0.04551578919432189 0
384 3.527423838010431 0.1562277175888294 0
385 2.888647500535404 0.872112983214716 0
386 2.966060691750307 -0.9117281372135438 0
387 3.593825702068974 -0.9618670022599778 0
388 3.203906981284362 -0.8591015855890102 0
389 1.873193857785137 -0.7718618612935706 0
390 3.450374403527503 0.817089863817865 0
391 2.902272734409063 0.2575513800173169 0
392 1.977913075198487 -0.2479455064037992 0
393 3.370513921767574 0.3385334981326686 0
394 2.246242473121583 0.8943580724418246 0
395 3.04574387486231 0.6954675093237283 0
396 2.497913779535063 -0.1967375009032385 0
397 2.741495748508985 -1.341819625885033 0
398 2.090890311355876 -0.6863279626598059 0
399 3.661346182603359 -0.7762722745380408 0
400 1.582249069472056 2.329435538303088 0
401 1.616114808072157 0.8006144579975135 0
402 2.959790111491811 -1.401987157051215 0
403 2.66500606447774 0.212828836906889 0
404 2.745159696628138 -0.1597079320602529 0
405 1.576017099439195 1.000289341517947 0
406 3.719527780674452 -0.5811497830588386 0
407 2.764127787657555 1.544247192082973 0
408 3.17887114593166 1.133018860680755 0
409 2.354884142297249 0.5347709763392537 0
410 3.833026235646908 -0.1911373993888219 0
411 2.452819825121842 -2.002101364882077 0
412 0.6495321267870806 -0.332017758648567 0
413 0.2690443950737459 -0.4322709141585329 0
414 1.975316639767437 0.6103180078785426 0
415 3.77835602766819 -0.3882114543300077 0
416 2.017460584193716 0.8109813746152841 0
417 1.455412557116116 -0.6085110695432095 0
418 2.285628737261604 0.3306956606107601 0
419 1.040033382879039 -0.4833598686475957 0
420 3.08921034912968 -0.4950169799834778 0
421 3.227630401940667 -0.08390200257431679 0
422 3.678622301865209 -0.01909572672165752 0
423 2.433863035209606 0.1706350536906892 0
424 0.9020491052649149 -0.6071361030795694 0
425 2.597139533184393 -0.5754214726076641 0
426 0.195335397670038 -0.2333110161245124 0
427 2.250326325548062 -1.01655270730597 0
428 3.082881555312684 1.335351009125388 0
429 4.047184188208379 -0.8431389374754397 0
430 2.204684309298903 0.1410268184668655 0
431 3.55598996959389 -0.4221529367546403 0
432 2.588034266110327 1.420464014497435 0
433 1.666999718422858 -0.01338614617408284 0
434 0.6298087755659466 -0.1229414164257228 0
435 4.145656405085794 -0.4812468260731538 0
436 1.864889569403335 -0.9584149388180272 0
437 1.742399307433593 -0.1816194451808236 0
438 2.134862685553514 0.4772186328957528 0
439 4.817067461793859 -0.04996445292418455 0
440 2.527461098288569 -1.327922355886588 0
441 2.407833577691764 1.347995956690891 0
442 0.3609728056336776 0.8967321735110478 0
443 1.317469227434945 -0.07106479619494922 0
444 2.192119199020504 -1.192657254899695 0
445 3.880597101550993 -0.7232336306931151 0
446 0.498428412415012 -0.02926471303610372 0
447 2.694829391558117 -1.688806060691505 0
448 1.096162588593901 -0.664639927407339 0
449 1.407194372629021 -0.4295544032818215 0
450 0.3151677299750089 0.3108775974735821 0
451 2.629323721709107 -2.023360434388001 0
452 3.326677722061374 -1.199442088205974 0
453 4.054626569337347 -1.021268334349557 0
454 2.474291960496295 -0.9811550449967997 0
455 2.185278074310978 1.350861594395982 0
456 3.611486479177122 0.7264476747104536 0
457 1.263825949324234 0.6469591971085009 0
458 1.80304263224736 0.7188759824941325 0
459 0.8070599916346044 -0.2118222490357133 0
460 0.7630677057308386 -0.722901808689609 0
461 3.058046693957397 -1.812479017872614 0
462 1.1486274264984 -0.8476764074573357 0
463 1.289737163382948 0.1029792746302273 0
464 3.310890040426058 -1.542592137710042 0
465 4.31631908880416 2.009755470744123 0
466 3.711695518237031 -1.112918417928985 0
467 2.815930070402576 -1.546174038779672 0
468 4.089977694812075 -0.6639327640045246 0
469 2.107268266103535 1.208389629926556 0
470 1.485886657219066 -0.7873339720334865 0
471 1.934567599102048 0.4280654667202719 0
472 2.870275031787366 -1.743811404503188 0
473 1.846592531788616 -1.125648193317692 0
474 1.196022192241921 -0.3634228399183315 0
475 3.432392987968235 -0.8135021777953533 0
476 1.597188296663186 0.4588833482070405 0
477 3.912429367164481 -1.164375634525089 0
478 1.510418907303216 -0.9556223722415306 0
479 1.99452251287922 0.1189651061576723 0
480 2.429412571058391 -1.482857618857813 0
481 1.802297577291373 -1.30655445338457 0
482 0.9636337855279832 -0.1036242340624682 0
483 0.9283486980767913 0.428779848327925 0
484 1.274581844217202 0.2737293600254116 0
485 0.9477811042839512 0.07738653664653176 0
486 1.611783127982687 0.6249716033947535 0
487 3.145962728164177 -1.488772448698589 0
488 1.631602198674338 -0.4961296452220472 0
489 3.309182259623455 0.9674372635817567 0
490 3.986518403777354 -0.3441668680027032 0
491 0.9390713699260926 0.2530013632988053 0
492 1.2634331362067 0.4591586937431331 0
493 1.716700827236636 1.109398873289289 0
494 3.362138680444061 1.157443352188319 0
495 2.320892398554917 -1.33538265391527 0
496 3.517990460261343 -1.142987249764078 0
497 0.2847089562060561 0.6655371756079714 0
498 0.7026317494827868 -0.5423957462387675 0
499 1.290915364577092 0.8204133290674502 0
500 0.9993758020803206 -0.2914024355142752 0
501 1.522594385110859 -0.1315897473875009 0
502 3.207458209267983 -1.664016783232803 0
503 3.991052141155549 0.2249521854429883 0
504 4.316399469959256 1.693825622014118 0
505 1.908660728189665 0.2653180168817657 0
506 3.686554008397218 0.5293942802755889 0
507 2.03557738959026 -1.529966966570286 0
508 1.129146960093829 0.0005805220477091791 0
509 1.69482628836054 2.159816288488364 0
510 1.156549238999476 2.286706207137523 0
511 3.771711983345527 0.3582304045556763 0
512 1.680799810543923 -0.8649401452852182 0
513 4.650512097510012 -1.106728398533826 0
514 1.469301496037736 2.116247474369922 0
515 3.516433821067804 1.195425250535847 0
516 2.214574009705126 1.65239021875898 0
517 4.789249932625661 -1.397971341968211 0
518 0.8956814169018852 0.6106081596000716 0
519 2.574527198461978 -1.839235979572891 0
520 1.919177646906297 1.159433748991359 0
521 2.790859814932892 -2.057983705334491 0
522 2.037572097556585 -1.069753965628961 0
523 4.419776433313334 -0.7850661604276948 0
524 1.772030718630305 2.00138774460838 0
525 3.285336839315418 1.466254421001085 0
526 1.292549636573874 -0.726649949477154 0
527 3.22872486969392 -2.304676794133421 0
528 0.6262661031484935 0.06655073597770748 0
529 0.7840857746713049 0.1594275341252928 0
530 2.355424014561028 2.128267984749077 0
531 3.690014756309601 -2.348112481125888 0
532 1.57851824448629 1.699611672533974 0
533 3.631724182007265 0.9237883725650814 0
534 1.09783919315129 0.3621765209259354 0
535 2.127559766109358 -1.356098083592131 0
536 0.9733830344960988 -0.9939144667888483 0
537 3.468639970927986 -1.313944844283651 0
538 2.34495887545574 -2.170641606371189 0
539 0.3004902908477458 -0.748712363036205 0
540 3.787083482006919 -1.31355725687335 0
541 4.704727107148419 0.04938404123485729 0
542 2.661343801978396 -2.187955430472085 0
543 1.440050529811066 0.2036607381930975 0
544 2.338035438406143 -1.63108207880065 0
545 1.434630451097921 0.5428230483874438 0
546 2.199431762183999 2.012564793971985 0
547 4.236566729401621 -0.1344215516538271 0
548 1.254813533312299 1.042606776600833 0
549 4.290569356144263 -0.6122396222690228 0
550 1.528627489912272 -1.122564828899828 0
551 3.11794870495277 -2.157350748731034 0
552 2.063116426216373 1.568146622899702 0
553 2.51013682156175 -1.658336007628842 0
554 0.1407744236197551 1.355341180190692 0
555 1.166798622457149 -1.505461549524707 0
556 4.465372693547515 -0.6000649781110871 0
557 2.960935750175345 -2.103033699806362 0
558 1.114571879073855 -1.2769844790456 0
559 4.293543548883018 -1.775875448671128 0
560 4.793654806432978 0.7827054839884485 0
561 2.497527892284783 1.768468370593907 0
562 2.921208801548262 -1.931890905042537 0
563 1.880241788236404 1.773063263276952 0
564 2.19489267616644 -1.790840298837223 0
565 3.984646537981589 -1.369130946241661 0
566 1.802520039399057 0.1419757567544234 0
567 0.9277678589488169 0.8058296671144909 0
568 0.6215158184370002 0.4064102986579621 0
569 2.980821188068651 -2.30102028087172 0
570 2.027575067978129 2.175378897807294 0
571 1.620819807038913 0.1736215371021223 0
572 4.715225809070012 -1.25687909019654 0
573 0.3549377192398904 1.114641390569357 0
574 1.67283243934067 1.53645366977826 0
575 1.942906549554796 -1.400343715306494 0
576 3.400885410752537 -1.673596668426529 0
577 4.082796887695621 -1.206815845470032 0
578 0.9950210515684416 1.480058692761257 0
579 0.7044386755684396 2.322389524530376 0
580 1.980649935147522 1.359025114076418 0
581 1.380363994340753 -1.050154662496402 0
582 3.677811872833515 -2.194324407304831 0
583 3.859713701250597 -2.363980415019228 0
584 1.746994813452876 1.333574632822626 0
585 2.10348639846904 1.796762267052127 0
586 3.506201804908374 1.478719039158873 0
587 4.348121300314863 -0.9697124381507818 0
588 0.6224894054845812 0.2421064956613437 0
589 0.4901946011918535 0.3226006476662027 0
590 3.620214793717991 -1.411893512316119 0
591 4.160528833400226 0.3583956592131392 0
592 0.6263277077799829 0.6083068792659058 0
593 0.1701756141725632 1.19277089558537 0
594 2.567536601607399 1.596433109306944 0
595 1.503632323986735 1.89506605773287 0
596 1.154704419923037 1.287079067453438 0
597 4.840177739758596 -0.7346264892101774 0
598 0.6440150589156158 0.8473548543636268 0
599 1.568606609304847 0.3150576419053274 0
600 2.39407586408079 1.642112380742972 0
601 1.534013096755013 1.225775219321652 0
602 3.657440345506101 2.357236186739974 0
603 2.616823065847322 1.921159808177308 0
604 1.955841006967786 -1.729618427500005 0
605 1.407662014573154 1.422807661650936 0
606 4.662125745665321 0.6458717348054878 0
607 0.1954759587418713 -2.050688532555834 0
608 0.6453539581100911 -0.8415200667182319 0
609 1.74463190105185 0.3314353718254414 0
610 0.5287388837431048 2.366013444260139 0
611 1.965991847585528 1.977950687035139 0
612 0.7711053054982994 0.5144376520867524 0
613 3.406291680040372 2.357412691764957 0
614 4.150023879554815 0.8413565905609636 0
615 1.255172683297759 -2.092445536865616 0
616 3.237702389194018 2.262919046609904 0
617 4.829086949670023 -1.117469371069133 0
618 2.153456197483288 -1.633622475181934 0
619 1.727745382372286 1.678960826973527 0
620 2.624037982994999 2.31187427681669 0
621 0.7926138392208891 -0.8962337659211617 0
622 3.314685537894221 1.994006908485459 0
623 2.274293998134554 1.507279892833942 0
624 3.457768873631524 -1.492684586315756 0
625 4.756714458553636 1.98871506547578 0
626 1.43046822966057 0.9062425478763053 0
627 0.6689721411001581 1.041134546352764 0
628 1.773362227505488 -1.536458744253375 0
629 3.691882108166188 1.239241986557569 0
630 1.273943927706286 2.140073789437747 0
631 4.564020909078077 0.8038286276630257 0
632 2.419349687863833 2.307735591078502 0
633 3.972629707978782 1.792314434666303 0
634 2.221080915728109 -2.349531298532234 0
635 0.3646643011311805 -2.179411319701551 0
636 0.1449396106726265 0.3026267910743778 0
637 3.63375912410886 1.086888056862006 0
638 3.296027684295501 -1.875008973511014 0
639 4.751890112745903 -0.4015813777586776 0
640 3.572705691714264 2.206791110774025 0
641 1.691334582028548 -1.175877478610973 0
642 2.41718451796985 1.960101950181873 0
643 3.82610911838545 1.045595239626849 0
644 3.449212708162239 1.821031089896004 0
645 2.46168485662388 -2.316681367921183 0
646 2.00209191570775 -2.333406821616957 0
647 3.154913472441471 2.145521131463293 0
648 4.816944771664819 0.3157800790070572 0
649 4.15925444321387 0.5299050475151035 0
650 4.460282304111062 -1.93321804056967 0
651 4.182704550951017 -0.95100505734133 0
652 1.891080330276772 -2.141542658211165 0
653 3.811321178085465 0.7007912601710266 0
654 4.636777981169746 -2.0735653317996 0
655 4.263010673156375 -2.350390788974907 0
656 0.9413519904156408 1.042659175633391 0
657 1.318315601554213 1.612057432669856 0
658 0.227206242514032 -1.153022928915775 0
659 3.417569812069524 1.326954755743521 0
660 3.732375637477422 2.031227138606275 0
661 0.7933090831884424 -1.040577397894483 0
662 4.833356683212952 2.218626757780064 0
663 1.568335594848249 1.405727681352783 0
664 3.765271328115165 -2.077411450875651 0
665 0.5281113900091717 1.697676217334765 0
666 4.816556866917821 0.5371326021888272 0
667 2.059941489876581 2.325906060203918 0
668 0.1444362418981297 -0.07785346606715038 0
669 4.060807409519718 1.299552524359795 0
670 4.128755703893805 0.02183096508326402 0
671 3.511500208989548 2.006419290962075 0
672 4.179285220909038 1.219278744485163 0
673 0.8977253129559118 2.043417603452903 0
674 0.33209307329011 1.799867319464287 0
675 4.465786962722545 0.6375823144204077 0
676 0.1342575146887148 -0.7476012983443187 0
677 1.673296862737313 -2.089477975347266 0
678 2.721879198259852 -2.357355668054493 0
679 1.04571008661019 -1.135651556911221 0
680 0.3410300978727397 1.349975270798058 0
681 0.5384050616855053 1.93073090499258 0
682 2.278096295354429 -0.4224777888099874 0
683 0.1650447013487947 -1.349628835478714 0
684 3.099909987593249 1.536038931245061 0
685 3.889775071334924 1.270561634578567 0
686 4.035052732170292 1.143841183573825 0
687 1.069272927611989 1.875707059288835 0
688 4.251557331705366 0.6660089257903788 0
689 0.3538829674768479 -0.5911067434807998 0
690 0.4096408841522433 -1.729756124534771 0
691 1.861009519471723 2.326379884098723 0
692 1.938055031512717 -0.4032357922266795 0
693 4.330855802019308 1.54334186428381 0
694 2.818662121283876 1.903766641749003 0
695 1.759731489310854 -1.873628933852048 0
696 4.03340953583675 0.9890851849181435 0
697 4.401814590315211 -1.385952204491389 0
698 4.198940202935316 -0.2907162567274792 0
699 0.1348287709487526 -2.375028869073062 0
700 4.865735830801595 2.372582438650687 0
701 3.858730475348624 2.341842495125639 0
702 0.539997203714038 1.469021100017385 0
703 4.413532756661907 1.823238485851879 0
704 0.3766109279041414 1.55791067283458 0
705 1.620452620696859 -1.707938701975653 0
706 0.186613291619804 1.560286988631769 0
707 2.982311806138433 1.730716862685094 0
708 0.9553714659954438 1.695476077057051 0
709 3.387378044606695 1.642915649475715 0
710 0.8347806556446192 1.83731075275197 0
711 0.1762791946811757 -0.5935596642817954 0
712 0.7553001832572628 1.624299465269567 0
713 1.248848214808669 -1.369733557418139 0
714 3.626264119374038 1.866004305714722 0
715 1.245772883208318 1.76984063291842 0
716 0.3371792743883104 -1.021236592872128 0
717 0.669664599880161 1.810412260841007 0
718 4.852926148433394 0.9697838432974087 0
719 1.015263189693512 -1.588720438613448 0
720 1.845263464127688 1.541537354971247 0
721 0.1814792529657041 2.186371720784063 0
722 0.3574090329898571 2.060440381135205 0
723 0.138141309958883 2.351789133827933 0
$EndNodes
$Elements
1444
1 1 4 8 1 1 2 2 3
2 1 4 8 1 1 2 3 4
3 1 4 8 1 1 2 4 5
4 1 4 8 1 1 2 5 6
5 1 4 8 1 1 2 6 7
6 1 4 8 1 1 2 7 8
7 1 4 8 1 1 2 8 9
8 1 4 8 1 1 2 9 10
9 1 4 8 1 1 2 10 11
10 1 4 8 1 1 2 11 12
11 1 4 8 1 1 2 12 13
12 1 4 8 1 1 2 13 14
13 1 4 8 1 1 2 14 15
14 1 4 8 1 1 2 15 16
15 1 4 8 1 1 2 16 17
16 1 4 8 1 1 2 17 18
17 1 4 8 1 1 2 18 19
18 1 4 8 1 1 2 19 20
19 1 4 8 1 1 2 20 21
20 1 4 8 1 1 2 21 22
21 1 4 8 1 1 2 22 23
22 1 4 8 1 1 2 23 24
23 1 4 8 1 1 2 24 25
24 1 4 8 1 1 2 25 1
25 1 4 9 2 1 2 1 27
26 1 4 9 2 1 2 27 28
27 1 4 9 2 1 2 28 29
28 1 4 9 2 1 2 29 30
29 1 4 9 2 1 2 30 31
30 1 4 9 2 1 2 31 32
31 1 4 9 2 1 2 32 33
32 1 4 9 2 1 2 33 34
33 1 4 9 2 1 2 34 35
34 1 4 9 2 1 2 35 36
35 1 4 9 2 1 1 36 37
36 1 4 9 2 1 1 37 38
37 1 4 9 2 1 1 38 39
38 1 4 9 2 1 1 39 40
39 1 4 9 2 1 1 40 41
40 1 4 9 2 1 1 41 42
41 1 4 9 2 1 1 42 43
42 1 4 9 2 1 1 43 44
43 1 4 9 2 1 1 44 45
44 1 4 9 2 1 1 45 46
45 1 4 9 2 1 1 46 47
46 1 4 9 2 1 1 47 48
47 1 4 9 2 1 1 48 49
48 1 4 9 2 1 1 49 26
49 1 4 8 3 1 1 26 51
50 1 4 8 3 1 1 51 52
51 1 4 8 3 1 1 52 53
52 1 4 8 3 1 1 53 54
53 1 4 8 3 1 1 54 55
54 1 4 8 3 1 1 55 56
55 1 4 8 3 1 1 56 57
56 1 4 8 3 1 1 57 58
57 1 4 8 3 1 1 58 59
58 1 4 8 3 1 1 59 60
59 1 4 8 3 1 1 60 61
60 1 4 8 3 1 1 61 62
61 1 4 8 3 1 1 62 63
62 1 4 8 3 1 1 63 64
63 1 4 8 3 1 1 64 65
64 1 4 8 3 1 1 65 66
65 1 4 8 3 1 1 66 67
66 1 4 8 3 1 1 67 68
67 1 4 8 3 1 1 68 69
68 1 4 8 3 1 1 69 70
69 1 4 8 3 1 1 70 71
70 1 4 8 3 1 1 71 72
71 1 4 8 3 1 1 72 73
72 1 4 8 3 1 1 73 50
73 1 4 7 4 1 1 50 74
74 1 4 7 4 1 1 74 75
75 1 4 7 4 1 1 75 76
76 1 4 7 4 1 1 76 77
77 1 4 7 4 1 1 77 78
78 1 4 7 4 1 1 78 79
79 1 4 7 4 1 1 79 80
80 1 4 7 4 1 1 80 81
81 1 4 7 4 1 1 81 82
82 1 4 7 4 1 1 82 83
83 1 4 7 4 1 2 83 84
84 1 4 7 4 1 2 84 85
85 1 4 7 4 1 2 85 86
86 1 4 7 4 1 2 86 87
87 1 4 7 4 1 2 87 88
88 1 4 7 4 1 2 88 89
89 1 4 7 4 1 2 89 90
90 1 4 7 4 1 2 90 91
91 1 4 7 4 1 2 91 92
92 1 4 7 4 1 2 92 93
93 1 4 7 4 1 2 93 94
94 1 4 7 4 1 2 94 95
95 1 4 7 4 1 2 95 96
96 1 4 7 4 1 2 96 2
97 2 4 10 6 1 1 112 72 73
98 2 4 10 6 1 2 113 24 25
99 2 4 10 6 1 1 159 72 112
100 2 4 10 6 1 2 160 24 113
101 2 4 10 6 1 1 162 51 52
102 2 4 10 6 1 2 163 3 4
103 2 4 10 6 1 1 67 151 66
104 2 4 10 6 1 1 158 47 48
105 2 4 10 6 1 1 159 71 72
106 2 4 10 6 1 2 160 23 24
107 2 4 10 6 1 2 161 94 95
108 2 5 10 6 2 1 -2 229 125 219
109 2 4 10 6 1 1 235 141 210
110 2 5 10 6 2 2 -1 246 125 229
111 2 4 10 6 1 1 134 259 126
112 2 4 10 6 1 1 261 152 213
113 2 4 10 6 1 2 13 263 12
114 2 4 10 6 1 1 265 152 261
115 2 4 10 6 1 1 265 137 262
116 2 4 10 6 1 1 268 126 222
117 2 4 10 6 1 1 126 268 134
118 2 4 10 6 1 1 43 269 42
119 2 4 10 6 1 2 148 271 156
120 2 4 10 6 1 1 146 272 155
121 2 4 10 6 1 2 281 15 16
122 2 4 10 6 1 2 281 133 279
123 2 4 10 6 1 1 104 283 234
124 2 4 10 6 1 1 135 283 270
125 2 4 10 6 1 1 283 135 234
126 2 4 10 6 1 1 109 287 270
127 2 4 10 6 1 1 288 109 257
128 2 4 10 6 1 1 141 292 210
129 2 4 10 6 1 1 293 106 266
130 2 4 10 6 1 1 146 295 244
131 2 4 10 6 1 1 137 295 262
132 2 5 10 6 2 1 -2 125 300 219
133 2 4 10 6 1 2 133 303 191
134 2 4 10 6 1 2 148 306 237
135 2 4 10 6 1 2 311 130 307
136 2 4 10 6 1 2 145 312 307
137 2 4 10 6 1 2 312 145 286
138 2 4 10 6 1 1 313 128 234
139 2 4 10 6 1 1 135 313 234
140 2 4 10 6 1 1 126 315 222
141 2 4 10 6 1 2 33 316 32
142 2 4 10 6 1 1 46 319 275
143 2 4 10 6 1 1 320 65 66
144 2 4 10 6 1 1 151 320 66
145 2 4 10 6 1 1 321 71 159
146 2 4 10 6 1 1 155 321 159
147 2 4 10 6 1 2 322 23 160
148 2 4 10 6 1 2 156 322 160
149 2 4 10 6 1 1 323 135 270
150 2 4 10 6 1 2 324 31 32
151 2 4 10 6 1 2 31 324 286
152 2 4 10 6 1 2 113 328 160
153 2 4 10 6 1 1 336 155 159
154 2 4 10 6 1 1 51 338 26
155 2 4 10 6 1 1 338 49 26
156 2 4 10 6 1 1 340 147 275
157 2 4 10 6 1 2 316 324 32
158 2 4 10 6 1 1 47 319 46
159 2 4 10 6 1 2 94 318 93
160 2 4 10 6 1 1 162 338 51
161 2 4 10 6 1 1 247 213 152
162 2 4 10 6 1 2 239 278 130
163 2 4 10 6 1 2 239 218 278
164 2 5 10 6 2 1 -2 219 225 229
165 2 4 10 6 1 1 235 300 141
166 2 4 10 6 1 1 235 219 300
167 2 4 10 6 1 1 227 233 143
168 2 5 10 6 2 2 -1 229 240 246
169 2 4 10 6 1 2 311 239 130
170 2 4 10 6 1 2 236 239 311
171 2 4 10 6 1 1 269 250 144
172 2 4 10 6 1 1 282 289 137
173 2 4 10 6 1 1 288 301 147
174 2 4 10 6 1 1 265 282 137
175 2 4 10 6 1 1 310 295 146
176 2 4 10 6 1 1 262 295 310
177 2 4 10 6 1 1 293 341 134
178 2 4 10 6 1 1 293 266 341
179 2 4 10 6 1 1 270 287 323
180 2 4 10 6 1 2 290 306 148
181 2 4 10 6 1 2 284 307 130
182 2 4 10 6 1 2 312 286 324
183 2 4 10 6 1 2 311 307 312
184 2 4 10 6 1 1 110 310 111
185 2 4 10 6 1 1 146 325 310
186 2 4 10 6 1 1 325 111 310
187 2 4 10 6 1 1 138 257 223
188 2 4 10 6 1 1 296 283 104
189 2 4 10 6 1 1 296 109 270
190 2 4 10 6 1 1 270 283 296
191 2 4 10 6 1 1 110 266 106
192 2 4 10 6 1 1 310 110 262
193 2 4 10 6 1 2 140 274 254
194 2 4 10 6 1 2 254 274 294
195 2 4 10 6 1 1 325 146 155
196 2 4 10 6 1 2 107 280 108
197 2 4 10 6 1 2 299 280 107
198 2 4 10 6 1 2 139 280 242
199 2 4 10 6 1 2 242 280 299
200 2 4 10 6 1 2 284 107 108
201 2 4 10 6 1 1 339 110 111
202 2 4 10 6 1 1 110 339 266
203 2 4 10 6 1 1 266 339 341
204 2 4 10 6 1 1 38 317 37
205 2 4 10 6 1 2 7 276 6
206 2 4 10 6 1 1 289 151 245
207 2 4 10 6 1 2 30 332 29
208 2 4 10 6 1 2 286 30 31
209 2 4 10 6 1 2 332 30 286
210 2 4 10 6 1 2 145 333 286
211 2 4 10 6 1 2 9 258 8
212 2 4 10 6 1 1 77 329 76
213 2 4 10 6 1 1 329 77 273
214 2 4 10 6 1 1 55 277 54
215 2 4 10 6 1 1 277 255 323
216 2 4 10 6 1 1 78 273 77
217 2 4 10 6 1 1 81 285 80
218 2 4 10 6 1 1 313 302 128
219 2 4 10 6 1 1 58 302 57
220 2 4 10 6 1 1 302 297 128
221 2 4 10 6 1 1 134 341 259
222 2 4 10 6 1 1 273 259 341
223 2 4 10 6 1 1 309 40 41
224 2 4 10 6 1 1 144 292 309
225 2 4 10 6 1 2 298 88 89
226 2 4 10 6 1 2 308 16 17
227 2 4 10 6 1 2 16 308 281
228 2 4 10 6 1 2 308 133 281
229 2 4 10 6 1 1 40 314 39
230 2 4 10 6 1 1 141 300 314
231 2 4 10 6 1 2 304 85 86
232 2 4 10 6 1 1 275 45 46
233 2 4 10 6 1 1 301 275 147
234 2 4 10 6 1 1 321 70 71
235 2 4 10 6 1 1 70 321 272
236 2 4 10 6 1 1 321 155 272
237 2 4 10 6 1 2 322 22 23
238 2 4 10 6 1 2 22 322 271
239 2 4 10 6 1 2 322 156 271
240 2 4 10 6 1 2 271 21 22
241 2 4 10 6 1 2 271 148 237
242 2 4 10 6 1 1 272 69 70
243 2 4 10 6 1 1 69 272 244
244 2 4 10 6 1 1 272 146 244
245 2 4 10 6 1 1 293 102 106
246 2 4 10 6 1 1 102 293 268
247 2 4 10 6 1 1 293 134 268
248 2 4 10 6 1 1 53 330 52
249 2 4 10 6 1 1 330 162 52
250 2 4 10 6 1 2 94 161 318
251 2 4 10 6 1 1 47 158 319
252 2 4 10 6 1 1 327 74 75
253 2 4 10 6 1 1 330 154 164
254 2 4 10 6 1 1 330 164 162
255 2 4 10 6 1 2 337 156 160
256 2 4 10 6 1 2 337 328 166
257 2 4 10 6 1 2 160 328 337
258 2 4 10 6 1 1 342 48 49
259 2 4 10 6 1 1 158 48 342
260 2 4 10 6 1 1 49 338 342
261 2 4 10 6 1 1 162 342 338
262 2 4 10 6 1 1 155 336 325
263 2 4 10 6 1 2 100 344 343
264 2 4 10 6 1 2 100 350 344
265 2 4 10 6 1 1 120 353 348
266 2 4 10 6 1 1 354 169 351
267 2 4 10 6 1 1 170 361 345
268 2 4 10 6 1 1 170 363 348
269 2 4 10 6 1 1 181 363 354
270 2 4 10 6 1 2 365 304 129
271 2 4 10 6 1 1 177 367 364
272 2 4 10 6 1 1 369 119 351
273 2 5 10 6 2 1 -2 369 179 362
274 2 4 10 6 1 2 373 168 343
275 2 4 10 6 1 2 373 172 366
276 2 4 10 6 1 2 114 374 356
277 2 5 10 6 2 2 -1 376 188 362
278 2 4 10 6 1 2 376 174 374
279 2 4 10 6 1 1 377 120 358
280 2 4 10 6 1 2 379 174 357
281 2 4 10 6 1 1 119 381 364
282 2 5 10 6 2 1 -2 185 381 368
283 2 4 10 6 1 2 118 382 357
284 2 4 10 6 1 2 172 382 366
285 2 4 10 6 1 1 383 189 372
286 2 5 10 6 2 2 -1 173 384 359
287 2 5 10 6 2 2 -1 188 384 368
288 2 4 10 6 1 2 385 172 344
289 2 4 10 6 1 2 172 385 379
290 2 4 10 6 1 1 386 120 348
291 2 4 10 6 1 1 120 386 358
292 2 4 10 6 1 1 388 178 358
293 2 4 10 6 1 1 388 181 367
294 2 4 10 6 1 1 389 182 352
295 2 4 10 6 1 2 390 114 356
296 2 4 10 6 1 2 174 391 357
297 2 5 10 6 2 2 -1 179 391 362
298 2 4 10 6 1 1 97 392 372
299 2 4 10 6 1 2 393 114 359
300 2 4 10 6 1 2 114 393 374
301 2 4 10 6 1 2 168 394 349
302 2 4 10 6 1 2 186 394 366
303 2 4 10 6 1 2 395 175 356
304 2 4 10 6 1 2 395 174 379
305 2 4 10 6 1 1 396 169 346
306 2 5 10 6 2 1 -2 396 189 370
307 2 4 10 6 1 1 120 397 353
308 2 4 10 6 1 1 398 97 345
309 2 4 10 6 1 1 97 398 352
310 2 4 10 6 1 1 399 149 387
311 2 4 10 6 1 2 400 258 9
312 2 4 10 6 1 1 402 120 377
313 2 4 10 6 1 1 120 402 397
314 2 4 10 6 1 2 403 118 357
315 2 5 10 6 2 2 -1 403 179 370
316 2 4 10 6 1 1 169 404 351
317 2 5 10 6 2 1 -2 179 404 370
318 2 4 10 6 1 2 405 115 401
319 2 4 10 6 1 1 177 406 399
320 2 4 10 6 1 2 408 175 350
321 2 4 10 6 1 2 409 186 366
322 2 4 10 6 1 1 98 410 371
323 2 4 10 6 1 1 116 411 233
324 2 5 10 6 2 1 -2 176 412 378
325 2 5 10 6 2 1 -2 413 176 378
326 2 4 10 6 1 1 415 215 406
327 2 4 10 6 1 1 415 185 410
328 2 4 10 6 1 2 416 115 349
329 2 4 10 6 1 2 416 186 414
330 2 4 10 6 1 2 118 418 409
331 2 4 10 6 1 1 119 420 351
332 2 4 10 6 1 1 420 119 364
333 2 5 10 6 2 1 -2 421 188 368
334 2 5 10 6 2 1 -2 188 421 362
335 2 5 10 6 2 1 -2 422 185 368
336 2 5 10 6 2 1 -2 422 173 371
337 2 5 10 6 2 1 -2 189 423 370
338 2 5 10 6 2 2 -1 118 423 418
339 2 4 10 6 1 1 424 196 419
340 2 4 10 6 1 1 425 170 345
341 2 4 10 6 1 1 425 169 354
342 2 4 10 6 1 1 427 192 361
343 2 4 10 6 1 2 100 428 350
344 2 4 10 6 1 2 428 100 380
345 2 5 10 6 2 1 -2 430 189 383
346 2 5 10 6 2 2 -1 430 206 418
347 2 4 10 6 1 1 431 177 364
348 2 4 10 6 1 1 177 431 406
349 2 4 10 6 1 2 432 100 343
350 2 4 10 6 1 2 100 432 407
351 2 5 10 6 2 2 -1 176 434 412
352 2 4 10 6 1 1 192 436 389
353 2 4 10 6 1 1 171 437 347
354 2 5 10 6 2 1 -2 207 437 433
355 2 4 10 6 1 2 438 186 409
356 2 4 10 6 1 2 186 438 414
357 2 4 10 6 1 1 300 439 314
358 2 4 10 6 1 1 38 439 317
359 2 4 10 6 1 1 440 184 353
360 2 4 10 6 1 2 168 441 343
361 2 4 10 6 1 2 442 256 142
362 2 4 10 6 1 2 442 298 355
363 2 5 10 6 2 1 -2 117 443 375
364 2 4 10 6 1 1 184 444 427
365 2 4 10 6 1 1 445 149 399
366 2 4 10 6 1 1 149 445 429
367 2 4 10 6 1 2 129 446 365
368 2 5 10 6 2 2 -1 176 446 434
369 2 5 10 6 2 2 -1 446 176 365
370 2 4 10 6 1 1 209 448 419
371 2 4 10 6 1 1 171 449 375
372 2 4 10 6 1 1 209 449 417
373 2 4 10 6 1 2 304 450 129
374 2 4 10 6 1 2 260 450 360
375 2 4 10 6 1 1 451 200 411
376 2 4 10 6 1 1 178 452 358
377 2 4 10 6 1 1 453 149 429
378 2 4 10 6 1 1 454 170 348
379 2 4 10 6 1 1 170 454 361
380 2 4 10 6 1 2 168 455 441
381 2 4 10 6 1 2 456 114 390
382 2 4 10 6 1 2 457 101 252
383 2 4 10 6 1 2 115 458 401
384 2 4 10 6 1 2 220 458 414
385 2 5 10 6 2 1 -2 459 196 412
386 2 4 10 6 1 1 183 460 424
387 2 4 10 6 1 1 462 124 267
388 2 4 10 6 1 1 462 183 448
389 2 5 10 6 2 2 -1 463 203 443
390 2 4 10 6 1 1 149 466 387
391 2 4 10 6 1 1 208 467 447
392 2 4 10 6 1 1 467 208 397
393 2 4 10 6 1 1 468 190 429
394 2 4 10 6 1 1 468 215 435
395 2 4 10 6 1 2 469 168 349
396 2 4 10 6 1 2 168 469 455
397 2 4 10 6 1 1 182 470 417
398 2 4 10 6 1 2 471 220 414
399 2 4 10 6 1 1 472 217 447
400 2 4 10 6 1 1 472 180 461
401 2 4 10 6 1 1 473 201 436
402 2 5 10 6 2 1 -2 474 117 375
403 2 4 10 6 1 1 474 209 419
404 2 4 10 6 1 1 177 475 367
405 2 4 10 6 1 1 178 475 387
406 2 4 10 6 1 1 477 149 453
407 2 4 10 6 1 1 149 477 466
408 2 4 10 6 1 1 478 124 470
409 2 5 10 6 2 1 -2 207 479 383
410 2 4 10 6 1 1 208 480 440
411 2 4 10 6 1 1 123 481 473
412 2 5 10 6 2 2 -1 197 482 459
413 2 4 10 6 1 2 216 484 463
414 2 4 10 6 1 2 197 485 482
415 2 4 10 6 1 2 486 194 401
416 2 4 10 6 1 2 486 220 476
417 2 4 10 6 1 1 487 202 464
418 2 4 10 6 1 1 202 487 377
419 2 4 10 6 1 1 488 171 347
420 2 4 10 6 1 1 488 182 417
421 2 4 10 6 1 2 175 489 356
422 2 4 10 6 1 2 489 175 408
423 2 4 10 6 1 1 98 490 410
424 2 4 10 6 1 1 215 490 435
425 2 4 10 6 1 2 491 199 483
426 2 4 10 6 1 2 491 216 485
427 2 4 10 6 1 2 492 101 457
428 2 4 10 6 1 2 492 224 484
429 2 4 10 6 1 2 493 115 405
430 2 4 10 6 1 2 226 494 408
431 2 4 10 6 1 1 495 184 440
432 2 4 10 6 1 1 184 495 444
433 2 4 10 6 1 1 496 178 387
434 2 4 10 6 1 1 178 496 452
435 2 4 10 6 1 2 260 497 142
436 2 4 10 6 1 2 497 260 360
437 2 4 10 6 1 1 498 122 378
438 2 4 10 6 1 1 498 196 424
439 2 4 10 6 1 2 252 499 457
440 2 4 10 6 1 2 499 194 457
441 2 5 10 6 2 1 -2 500 196 459
442 2 5 10 6 2 1 -2 196 500 419
443 2 4 10 6 1 1 501 171 375
444 2 5 10 6 2 1 -2 501 203 433
445 2 4 10 6 1 1 180 502 461
446 2 5 10 6 2 2 -1 505 206 479
447 2 4 10 6 1 2 206 505 471
448 2 4 10 6 1 2 114 506 359
449 2 4 10 6 1 2 506 114 456
450 2 5 10 6 2 2 -1 117 508 443
451 2 5 10 6 2 2 -1 508 117 482
452 2 4 10 6 1 2 510 7 8
453 2 4 10 6 1 2 258 510 8
454 2 5 10 6 2 2 -1 511 173 359
455 2 5 10 6 2 2 -1 511 228 503
456 2 5 10 6 2 2 -1 173 511 503
457 2 4 10 6 1 1 512 182 389
458 2 4 10 6 1 1 182 512 470
459 2 4 10 6 1 1 513 250 269
460 2 4 10 6 1 1 250 513 138
461 2 4 10 6 1 2 514 258 400
462 2 4 10 6 1 2 515 195 494
463 2 4 10 6 1 1 517 275 301
464 2 4 10 6 1 1 275 517 45
465 2 4 10 6 1 2 518 101 483
466 2 4 10 6 1 1 116 519 411
467 2 4 10 6 1 1 217 519 447
468 2 4 10 6 1 2 115 520 349
469 2 4 10 6 1 2 520 115 493
470 2 4 10 6 1 1 217 521 451
471 2 4 10 6 1 1 192 522 436
472 2 4 10 6 1 1 522 192 427
473 2 4 10 6 1 1 523 144 250
474 2 4 10 6 1 2 524 231 509
475 2 4 10 6 1 2 127 524 509
476 2 4 10 6 1 1 209 526 448
477 2 4 10 6 1 1 526 209 417
478 2 4 10 6 1 1 302 527 297
479 2 4 10 6 1 1 527 302 58
480 2 4 10 6 1 2 528 197 434
481 2 4 10 6 1 2 197 529 485
482 2 4 10 6 1 2 529 197 528
483 2 4 10 6 1 1 531 56 57
484 2 4 10 6 1 1 302 531 57
485 2 4 10 6 1 2 532 105 264
486 2 4 10 6 1 2 195 533 390
487 2 4 10 6 1 2 101 534 483
488 2 4 10 6 1 2 216 534 484
489 2 4 10 6 1 1 535 123 444
490 2 4 10 6 1 1 535 232 507
491 2 4 10 6 1 1 536 183 462
492 2 4 10 6 1 1 267 536 462
493 2 4 10 6 1 1 537 202 452
494 2 4 10 6 1 1 540 230 466
495 2 5 10 6 2 1 -2 541 300 125
496 2 4 10 6 1 1 541 317 439
497 2 5 10 6 2 1 -2 317 541 125
498 2 4 10 6 1 1 300 541 439
499 2 4 10 6 1 1 542 200 451
500 2 5 10 6 2 2 -1 543 203 463
501 2 4 10 6 1 1 544 232 480
502 2 4 10 6 1 2 194 545 457
503 2 4 10 6 1 2 224 545 476
504 2 4 10 6 1 2 205 548 241
505 2 4 10 6 1 1 210 549 435
506 2 4 10 6 1 1 190 549 523
507 2 4 10 6 1 1 247 550 213
508 2 4 10 6 1 1 201 550 478
509 2 4 10 6 1 1 551 121 297
510 2 4 10 6 1 1 208 553 480
511 2 4 10 6 1 1 553 208 447
512 2 4 10 6 1 1 265 555 152
513 2 4 10 6 1 1 144 556 292
514 2 4 10 6 1 1 556 210 292
515 2 4 10 6 1 1 556 144 523
516 2 4 10 6 1 1 557 238 521
517 2 4 10 6 1 1 557 121 551
518 2 4 10 6 1 1 109 559 287
519 2 4 10 6 1 1 559 109 288
520 2 4 10 6 1 1 121 562 461
521 2 4 10 6 1 1 217 562 521
522 2 4 10 6 1 1 564 116 233
523 2 4 10 6 1 1 116 564 544
524 2 4 10 6 1 1 565 109 296
525 2 4 10 6 1 1 109 565 257
526 2 5 10 6 2 1 -2 207 566 479
527 2 5 10 6 2 1 -2 566 207 433
528 2 5 10 6 2 2 -1 571 203 543
529 2 5 10 6 2 2 -1 203 571 433
530 2 4 10 6 1 1 301 572 517
531 2 4 10 6 1 2 574 105 532
532 2 4 10 6 1 1 123 575 481
533 2 4 10 6 1 1 576 104 234
534 2 4 10 6 1 1 577 223 257
535 2 4 10 6 1 1 223 577 453
536 2 4 10 6 1 2 291 578 253
537 2 4 10 6 1 2 276 579 6
538 2 4 10 6 1 2 579 276 153
539 2 4 10 6 1 1 124 581 267
540 2 4 10 6 1 1 581 247 267
541 2 4 10 6 1 1 581 124 478
542 2 4 10 6 1 1 302 582 531
543 2 4 10 6 1 1 582 302 313
544 2 4 10 6 1 1 582 255 531
545 2 4 10 6 1 1 583 55 56
546 2 4 10 6 1 1 583 255 277
547 2 4 10 6 1 1 55 583 277
548 2 4 10 6 1 2 585 214 516
549 2 4 10 6 1 2 214 585 546
550 2 4 10 6 1 1 223 587 138
551 2 4 10 6 1 1 587 250 138
552 2 4 10 6 1 2 129 588 528
553 2 4 10 6 1 2 199 588 568
554 2 4 10 6 1 2 589 129 450
555 2 4 10 6 1 2 589 260 568
556 2 4 10 6 1 2 260 589 450
557 2 4 10 6 1 1 230 590 537
558 2 5 10 6 2 1 -2 591 229 225
559 2 5 10 6 2 2 -1 229 591 240
560 2 4 10 6 1 2 260 592 568
561 2 4 10 6 1 2 592 260 142
562 2 4 10 6 1 2 593 90 91
563 2 4 10 6 1 2 90 593 355
564 2 4 10 6 1 2 594 187 407
565 2 4 10 6 1 2 187 594 561
566 2 4 10 6 1 2 595 264 136
567 2 4 10 6 1 2 595 231 198
568 2 4 10 6 1 2 241 596 291
569 2 4 10 6 1 1 269 597 42
570 2 4 10 6 1 1 309 597 144
571 2 4 10 6 1 1 597 269 144
572 2 4 10 6 1 2 598 212 211
573 2 4 10 6 1 2 598 142 256
574 2 4 10 6 1 2 224 599 543
575 2 4 10 6 1 2 599 224 476
576 2 4 10 6 1 2 600 214 561
577 2 4 10 6 1 2 214 600 516
578 2 4 10 6 1 2 603 187 561
579 2 4 10 6 1 2 241 605 601
580 2 4 10 6 1 2 605 241 291
581 2 4 10 6 1 1 607 327 75
582 2 4 10 6 1 1 607 329 165
583 2 4 10 6 1 1 122 608 315
584 2 4 10 6 1 1 608 222 315
585 2 4 10 6 1 1 608 122 460
586 2 4 10 6 1 2 220 609 476
587 2 4 10 6 1 2 609 220 471
588 2 4 10 6 1 2 610 163 4
589 2 4 10 6 1 2 163 610 167
590 2 4 10 6 1 2 199 612 483
591 2 4 10 6 1 2 612 199 568
592 2 4 10 6 1 2 103 614 251
593 2 4 10 6 1 2 218 614 278
594 2 4 10 6 1 1 295 615 244
595 2 4 10 6 1 1 615 295 137
596 2 4 10 6 1 1 615 245 244
597 2 4 10 6 1 2 248 616 613
598 2 4 10 6 1 1 617 43 44
599 2 4 10 6 1 1 618 232 544
600 2 4 10 6 1 1 232 618 507
601 2 4 10 6 1 2 198 619 532
602 2 4 10 6 1 2 15 620 14
603 2 4 10 6 1 1 183 621 460
604 2 4 10 6 1 2 623 193 441
605 2 4 10 6 1 1 624 202 537
606 2 4 10 6 1 1 202 624 464
607 2 4 10 6 1 2 194 626 401
608 2 4 10 6 1 2 626 194 499
609 2 4 10 6 1 2 254 627 140
610 2 4 10 6 1 2 627 256 140
611 2 4 10 6 1 2 627 254 212
612 2 4 10 6 1 2 150 629 515
613 2 4 10 6 1 2 136 630 514
614 2 4 10 6 1 2 630 258 514
615 2 4 10 6 1 2 632 13 14
616 2 4 10 6 1 2 280 633 108
617 2 4 10 6 1 2 633 290 108
618 2 4 10 6 1 1 634 63 64
619 2 4 10 6 1 1 635 159 112
620 2 4 10 6 1 1 327 635 112
621 2 4 10 6 1 2 87 636 86
622 2 4 10 6 1 2 636 304 86
623 2 4 10 6 1 2 636 87 360
624 2 4 10 6 1 2 637 195 515
625 2 4 10 6 1 2 195 637 533
626 2 4 10 6 1 1 297 638 128
627 2 4 10 6 1 1 639 292 141
628 2 4 10 6 1 1 314 639 141
629 2 4 10 6 1 1 641 201 473
630 2 4 10 6 1 1 641 213 550
631 2 4 10 6 1 1 201 641 550
632 2 4 10 6 1 2 214 642 561
633 2 4 10 6 1 1 646 64 65
634 2 4 10 6 1 2 647 303 133
635 2 4 10 6 1 2 308 647 133
636 2 5 10 6 2 1 -2 648 36 37
637 2 5 10 6 2 1 -2 317 648 37
638 2 4 10 6 1 2 251 649 228
639 2 4 10 6 1 1 190 651 429
640 2 4 10 6 1 1 652 227 143
641 2 4 10 6 1 1 227 652 249
642 2 4 10 6 1 2 221 653 456
643 2 4 10 6 1 1 164 654 162
644 2 4 10 6 1 1 654 342 162
645 2 4 10 6 1 1 277 655 54
646 2 4 10 6 1 1 330 655 154
647 2 4 10 6 1 1 655 277 154
648 2 4 10 6 1 2 157 656 294
649 2 4 10 6 1 2 656 254 294
650 2 4 10 6 1 2 657 264 105
651 2 4 10 6 1 2 657 291 253
652 2 4 10 6 1 2 659 226 525
653 2 4 10 6 1 2 226 659 494
654 2 4 10 6 1 1 661 102 268
655 2 4 10 6 1 1 222 661 268
656 2 4 10 6 1 2 328 662 625
657 2 4 10 6 1 2 662 28 625
658 2 4 10 6 1 1 135 664 313
659 2 4 10 6 1 1 255 664 323
660 2 4 10 6 1 1 664 135 323
661 2 4 10 6 1 1 646 634 64
662 2 4 10 6 1 1 143 634 646
663 2 4 10 6 1 2 598 592 142
664 2 4 10 6 1 2 211 592 598
665 2 4 10 6 1 1 638 234 128
666 2 4 10 6 1 2 642 530 132
667 2 4 10 6 1 2 514 595 136
668 2 4 10 6 1 2 514 231 595
669 2 4 10 6 1 1 289 615 137
670 2 4 10 6 1 1 289 245 615
671 2 4 10 6 1 1 531 583 56
672 2 4 10 6 1 1 531 255 583
673 2 4 10 6 1 2 598 627 212
674 2 4 10 6 1 2 598 256 627
675 2 4 10 6 1 1 646 652 143
676 2 4 10 6 1 2 532 595 198
677 2 4 10 6 1 2 532 264 595
678 2 4 10 6 1 2 605 657 105
679 2 4 10 6 1 2 605 291 657
680 2 4 10 6 1 2 497 442 142
681 2 4 10 6 1 2 298 442 497
682 2 4 10 6 1 2 620 632 14
683 2 4 10 6 1 1 582 664 255
684 2 4 10 6 1 1 582 313 664
685 2 4 10 6 1 2 596 578 291
686 2 4 10 6 1 2 294 578 596
687 2 4 10 6 1 1 257 565 577
688 2 4 10 6 1 2 579 5 6
689 2 4 10 6 1 1 655 53 54
690 2 4 10 6 1 1 330 53 655
691 2 4 10 6 1 1 297 527 551
692 2 4 10 6 1 1 597 41 42
693 2 4 10 6 1 1 309 41 597
694 2 4 10 6 1 1 76 607 75
695 2 4 10 6 1 1 76 329 607
696 2 4 10 6 1 2 5 610 4
697 2 4 10 6 1 2 465 337 166
698 2 4 10 6 1 2 373 344 172
699 2 4 10 6 1 2 343 344 373
700 2 4 10 6 1 2 432 441 193
701 2 4 10 6 1 2 432 343 441
702 2 4 10 6 1 2 385 350 175
703 2 4 10 6 1 2 344 350 385
704 2 4 10 6 1 1 425 346 169
705 2 4 10 6 1 1 345 346 425
706 2 4 10 6 1 1 398 361 192
707 2 4 10 6 1 1 345 361 398
708 2 4 10 6 1 1 396 372 189
709 2 4 10 6 1 1 346 372 396
710 2 4 10 6 1 1 488 352 182
711 2 4 10 6 1 1 347 352 488
712 2 4 10 6 1 1 392 437 207
713 2 4 10 6 1 1 392 347 437
714 2 4 10 6 1 1 454 353 184
715 2 4 10 6 1 1 348 353 454
716 2 4 10 6 1 1 386 363 181
717 2 4 10 6 1 1 348 363 386
718 2 4 10 6 1 2 416 394 186
719 2 4 10 6 1 2 349 394 416
720 2 4 10 6 1 2 469 349 520
721 2 4 10 6 1 2 408 428 226
722 2 4 10 6 1 2 408 350 428
723 2 5 10 6 2 1 -2 369 404 179
724 2 4 10 6 1 1 369 351 404
725 2 4 10 6 1 1 354 420 181
726 2 4 10 6 1 1 354 351 420
727 2 4 10 6 1 1 389 398 192
728 2 4 10 6 1 1 389 352 398
729 2 4 10 6 1 1 440 397 208
730 2 4 10 6 1 1 353 397 440
731 2 4 10 6 1 1 425 363 170
732 2 4 10 6 1 1 354 363 425
733 2 4 10 6 1 2 390 489 195
734 2 4 10 6 1 2 390 356 489
735 2 4 10 6 1 2 395 374 174
736 2 4 10 6 1 2 356 374 395
737 2 4 10 6 1 2 379 382 172
738 2 4 10 6 1 2 379 357 382
739 2 5 10 6 2 2 -1 403 391 179
740 2 4 10 6 1 2 357 391 403
741 2 4 10 6 1 1 377 452 202
742 2 4 10 6 1 1 377 358 452
743 2 4 10 6 1 1 388 386 181
744 2 4 10 6 1 1 358 386 388
745 2 5 10 6 2 2 -1 393 384 188
746 2 4 10 6 1 2 359 384 393
747 2 4 10 6 1 2 511 506 228
748 2 4 10 6 1 2 359 506 511
749 2 4 10 6 1 2 636 450 304
750 2 4 10 6 1 2 360 450 636
751 2 4 10 6 1 1 427 454 184
752 2 4 10 6 1 1 427 361 454
753 2 4 10 6 1 1 369 421 119
754 2 5 10 6 2 1 -2 369 362 421
755 2 4 10 6 1 2 376 391 174
756 2 5 10 6 2 2 -1 376 362 391
757 2 4 10 6 1 1 420 367 181
758 2 4 10 6 1 1 364 367 420
759 2 4 10 6 1 1 431 381 185
760 2 4 10 6 1 1 364 381 431
761 2 4 10 6 1 2 409 382 118
762 2 4 10 6 1 2 366 382 409
763 2 4 10 6 1 2 373 394 168
764 2 4 10 6 1 2 373 366 394
765 2 4 10 6 1 1 388 475 178
766 2 4 10 6 1 1 388 367 475
767 2 4 10 6 1 1 421 381 119
768 2 5 10 6 2 1 -2 368 381 421
769 2 5 10 6 2 2 -1 422 384 173
770 2 5 10 6 2 2 -1 368 384 422
771 2 5 10 6 2 2 -1 403 423 118
772 2 5 10 6 2 2 -1 403 370 423
773 2 4 10 6 1 1 396 404 169
774 2 5 10 6 2 1 -2 396 370 404
775 2 5 10 6 2 1 -2 422 410 185
776 2 5 10 6 2 1 -2 371 410 422
777 2 4 10 6 1 1 383 392 207
778 2 4 10 6 1 1 383 372 392
779 2 5 10 6 2 2 -1 376 393 188
780 2 4 10 6 1 2 376 374 393
781 2 5 10 6 2 1 -2 501 443 203
782 2 5 10 6 2 1 -2 375 443 501
783 2 4 10 6 1 1 474 449 209
784 2 4 10 6 1 1 375 449 474
785 2 4 10 6 1 1 402 487 180
786 2 4 10 6 1 1 402 377 487
787 2 5 10 6 2 1 -2 498 412 196
788 2 5 10 6 2 1 -2 378 412 498
789 2 4 10 6 1 2 395 385 175
790 2 4 10 6 1 2 379 385 395
791 2 5 10 6 2 2 -1 430 479 206
792 2 5 10 6 2 1 -2 430 383 479
793 2 4 10 6 1 1 399 475 177
794 2 4 10 6 1 1 399 387 475
795 2 4 10 6 1 1 496 466 230
796 2 4 10 6 1 1 387 466 496
797 2 4 10 6 1 1 512 436 201
798 2 4 10 6 1 1 389 436 512
799 2 4 10 6 1 2 456 533 221
800 2 4 10 6 1 2 456 390 533
801 2 4 10 6 1 1 467 402 180
802 2 4 10 6 1 1 397 402 467
803 2 4 10 6 1 1 445 406 215
804 2 4 10 6 1 1 399 406 445
805 2 4 10 6 1 2 514 509 231
806 2 4 10 6 1 2 400 509 514
807 2 4 10 6 1 2 405 626 205
808 2 4 10 6 1 2 405 401 626
809 2 4 10 6 1 2 486 458 220
810 2 4 10 6 1 2 401 458 486
811 2 4 10 6 1 1 415 431 185
812 2 4 10 6 1 1 415 406 431
813 2 4 10 6 1 2 594 432 193
814 2 4 10 6 1 2 407 432 594
815 2 4 10 6 1 2 489 494 195
816 2 4 10 6 1 2 489 408 494
817 2 4 10 6 1 2 438 418 206
818 2 4 10 6 1 2 409 418 438
819 2 4 10 6 1 1 415 490 215
820 2 4 10 6 1 1 415 410 490
821 2 4 10 6 1 1 451 519 217
822 2 4 10 6 1 1 451 411 519
823 2 5 10 6 2 2 -1 459 434 197
824 2 5 10 6 2 2 -1 412 434 459
825 2 4 10 6 1 2 416 458 115
826 2 4 10 6 1 2 416 414 458
827 2 4 10 6 1 2 471 438 206
828 2 4 10 6 1 2 414 438 471
829 2 4 10 6 1 1 526 470 124
830 2 4 10 6 1 1 417 470 526
831 2 4 10 6 1 1 488 449 171
832 2 4 10 6 1 1 417 449 488
833 2 5 10 6 2 1 -2 430 423 189
834 2 5 10 6 2 2 -1 418 423 430
835 2 5 10 6 2 1 -2 474 500 117
836 2 5 10 6 2 1 -2 474 419 500
837 2 4 10 6 1 1 424 448 183
838 2 4 10 6 1 1 424 419 448
839 2 4 10 6 1 1 498 460 122
840 2 4 10 6 1 1 424 460 498
841 2 4 10 6 1 1 522 444 123
842 2 4 10 6 1 1 427 444 522
843 2 4 10 6 1 1 468 445 215
844 2 4 10 6 1 1 429 445 468
845 2 4 10 6 1 1 453 651 223
846 2 4 10 6 1 1 453 429 651
847 2 5 10 6 2 2 -1 566 433 571
848 2 4 10 6 1 1 501 437 171
849 2 5 10 6 2 1 -2 433 437 501
850 2 4 10 6 1 2 528 446 129
851 2 4 10 6 1 2 434 446 528
852 2 4 10 6 1 1 468 549 190
853 2 4 10 6 1 1 468 435 549
854 2 4 10 6 1 1 473 522 123
855 2 4 10 6 1 1 473 436 522
856 2 4 10 6 1 1 495 480 232
857 2 4 10 6 1 1 440 480 495
858 2 4 10 6 1 2 441 455 623
859 2 4 10 6 1 2 463 508 216
860 2 5 10 6 2 2 -1 463 443 508
861 2 4 10 6 1 1 535 495 232
862 2 4 10 6 1 1 444 495 535
863 2 4 10 6 1 1 553 519 116
864 2 4 10 6 1 1 447 519 553
865 2 4 10 6 1 1 472 467 180
866 2 4 10 6 1 1 447 467 472
867 2 4 10 6 1 1 462 526 124
868 2 4 10 6 1 1 462 448 526
869 2 4 10 6 1 1 542 521 238
870 2 4 10 6 1 1 451 521 542
871 2 4 10 6 1 1 537 496 230
872 2 4 10 6 1 1 452 496 537
873 2 4 10 6 1 1 477 453 577
874 2 4 10 6 1 2 455 469 580
875 2 4 10 6 1 2 506 653 228
876 2 4 10 6 1 2 506 456 653
877 2 4 10 6 1 2 492 545 224
878 2 4 10 6 1 2 492 457 545
879 2 5 10 6 2 2 -1 500 482 117
880 2 5 10 6 2 2 -1 459 482 500
881 2 4 10 6 1 1 608 621 222
882 2 4 10 6 1 1 608 460 621
883 2 4 10 6 1 1 472 562 217
884 2 4 10 6 1 1 472 461 562
885 2 4 10 6 1 2 543 484 224
886 2 4 10 6 1 2 463 484 543
887 2 4 10 6 1 1 576 624 104
888 2 4 10 6 1 1 576 464 624
889 2 4 10 6 1 1 487 502 180
890 2 4 10 6 1 1 487 464 502
891 2 4 10 6 1 1 466 477 540
892 2 4 10 6 1 1 478 512 201
893 2 4 10 6 1 1 478 470 512
894 2 4 10 6 1 2 471 505 609
895 2 4 10 6 1 1 641 481 213
896 2 4 10 6 1 1 473 481 641
897 2 4 10 6 1 2 599 476 609
898 2 4 10 6 1 2 486 545 194
899 2 4 10 6 1 2 486 476 545
900 2 4 10 6 1 1 581 550 247
901 2 4 10 6 1 1 478 550 581
902 2 5 10 6 2 2 -1 505 479 566
903 2 4 10 6 1 1 544 553 116
904 2 4 10 6 1 1 544 480 553
905 2 4 10 6 1 2 508 485 216
906 2 4 10 6 1 2 482 485 508
907 2 4 10 6 1 2 518 612 211
908 2 4 10 6 1 2 518 483 612
909 2 4 10 6 1 2 491 534 216
910 2 4 10 6 1 2 491 483 534
911 2 4 10 6 1 2 492 534 101
912 2 4 10 6 1 2 492 484 534
913 2 4 10 6 1 2 491 529 199
914 2 4 10 6 1 2 491 485 529
915 2 4 10 6 1 2 520 493 584
916 2 4 10 6 1 2 515 659 150
917 2 4 10 6 1 2 515 494 659
918 2 4 10 6 1 1 538 634 143
919 2 4 10 6 1 1 535 575 123
920 2 4 10 6 1 1 535 507 575
921 2 4 10 6 1 1 604 507 618
922 2 4 10 6 1 2 515 629 637
923 2 4 10 6 1 2 623 600 193
924 2 4 10 6 1 2 516 600 623
925 2 4 10 6 1 1 621 661 222
926 2 4 10 6 1 1 557 562 121
927 2 4 10 6 1 1 557 521 562
928 2 4 10 6 1 1 556 549 210
929 2 4 10 6 1 1 523 549 556
930 2 4 10 6 1 2 563 619 198
931 2 4 10 6 1 2 659 586 150
932 2 4 10 6 1 2 525 586 659
933 2 4 10 6 1 2 529 588 199
934 2 4 10 6 1 2 529 528 588
935 2 4 10 6 1 2 574 532 619
936 2 4 10 6 1 1 624 590 104
937 2 4 10 6 1 1 537 590 624
938 2 4 10 6 1 2 574 663 105
939 2 4 10 6 1 2 571 543 599
940 2 4 10 6 1 1 544 564 618
941 2 4 10 6 1 1 557 569 238
942 2 4 10 6 1 1 557 551 569
943 2 4 10 6 1 1 651 587 223
944 2 4 10 6 1 2 603 642 132
945 2 4 10 6 1 2 603 561 642
946 2 4 10 6 1 2 600 594 193
947 2 4 10 6 1 2 561 594 600
948 2 4 10 6 1 2 589 588 129
949 2 4 10 6 1 2 568 588 589
950 2 4 10 6 1 2 612 592 211
951 2 4 10 6 1 2 568 592 612
952 2 4 10 6 1 2 663 605 105
953 2 4 10 6 1 2 601 605 663
954 2 4 10 6 1 2 616 647 308
955 2 4 10 6 1 1 650 654 164
956 2 4 10 6 1 1 335 164 154
957 2 4 10 6 1 1 335 650 164
958 2 4 10 6 1 2 660 243 237
959 2 4 10 6 1 2 306 660 237
960 2 4 10 6 1 2 660 306 139
961 2 4 10 6 1 2 331 167 153
962 2 4 10 6 1 2 148 465 290
963 2 4 10 6 1 2 465 148 156
964 2 4 10 6 1 2 156 337 465
965 2 4 10 6 1 2 9 10 400
966 2 5 10 6 2 2 -1 365 176 426
967 2 4 10 6 1 2 662 27 28
968 2 5 10 6 2 2 -1 426 83 84
969 2 5 10 6 2 2 -1 176 413 426
970 2 4 10 6 1 1 200 542 645
971 2 4 10 6 1 1 63 645 62
972 2 4 10 6 1 1 63 634 645
973 2 4 10 6 1 1 538 200 645
974 2 4 10 6 1 1 538 645 634
975 2 4 10 6 1 2 19 613 18
976 2 4 10 6 1 2 613 640 248
977 2 4 10 6 1 2 660 640 243
978 2 4 10 6 1 1 547 219 235
979 2 4 10 6 1 2 303 622 131
980 2 4 10 6 1 2 303 647 622
981 2 4 10 6 1 2 305 630 136
982 2 4 10 6 1 2 290 504 108
983 2 4 10 6 1 1 138 572 301
984 2 4 10 6 1 1 572 138 513
985 2 4 10 6 1 2 281 620 15
986 2 4 10 6 1 2 333 332 286
987 2 4 10 6 1 2 279 603 132
988 2 4 10 6 1 2 150 586 299
989 2 4 10 6 1 2 586 242 299
990 2 4 10 6 1 2 87 88 360
991 2 4 10 6 1 2 497 88 298
992 2 4 10 6 1 2 360 88 497
993 2 4 10 6 1 1 309 639 40
994 2 4 10 6 1 1 639 309 292
995 2 4 10 6 1 1 639 314 40
996 2 4 10 6 1 1 327 607 635
997 2 4 10 6 1 1 336 635 165
998 2 4 10 6 1 1 635 336 159
999 2 4 10 6 1 1 635 607 165
1000 2 4 10 6 1 2 256 573 140
1001 2 4 10 6 1 2 442 573 256
1002 2 4 10 6 1 2 442 355 573
1003 2 4 10 6 1 2 632 263 13
1004 2 4 10 6 1 2 263 632 530
1005 2 4 10 6 1 1 277 335 154
1006 2 4 10 6 1 1 277 323 335
1007 2 4 10 6 1 1 323 287 335
1008 2 4 10 6 1 2 633 280 139
1009 2 4 10 6 1 2 633 306 290
1010 2 4 10 6 1 2 306 633 139
1011 2 4 10 6 1 2 89 90 355
1012 2 4 10 6 1 2 298 89 355
1013 2 4 10 6 1 1 334 654 650
1014 2 4 10 6 1 1 342 654 158
1015 2 4 10 6 1 2 656 157 252
1016 2 4 10 6 1 2 656 212 254
1017 2 4 10 6 1 2 567 212 656
1018 2 4 10 6 1 2 252 567 656
1019 2 4 10 6 1 1 200 538 411
1020 2 4 10 6 1 1 538 233 411
1021 2 4 10 6 1 1 233 538 143
1022 2 4 10 6 1 2 631 239 236
1023 2 4 10 6 1 2 239 631 218
1024 2 4 10 6 1 2 236 560 631
1025 2 4 10 6 1 1 539 122 315
1026 2 4 10 6 1 1 325 326 111
1027 2 4 10 6 1 1 326 339 111
1028 2 4 10 6 1 1 326 336 165
1029 2 4 10 6 1 1 336 326 325
1030 2 4 10 6 1 2 570 611 127
1031 2 4 10 6 1 2 570 546 611
1032 2 4 10 6 1 1 102 558 106
1033 2 4 10 6 1 1 102 661 536
1034 2 4 10 6 1 1 621 183 536
1035 2 4 10 6 1 1 621 536 661
1036 2 4 10 6 1 1 262 555 265
1037 2 4 10 6 1 2 299 629 150
1038 2 4 10 6 1 1 121 638 297
1039 2 4 10 6 1 1 638 121 461
1040 2 4 10 6 1 1 461 502 638
1041 2 4 10 6 1 1 590 230 540
1042 2 4 10 6 1 1 296 590 540
1043 2 4 10 6 1 1 590 296 104
1044 2 4 10 6 1 2 602 19 20
1045 2 4 10 6 1 2 243 640 602
1046 2 4 10 6 1 2 613 19 602
1047 2 4 10 6 1 2 613 602 640
1048 2 4 10 6 1 1 147 340 288
1049 2 4 10 6 1 1 340 334 650
1050 2 4 10 6 1 1 269 617 513
1051 2 4 10 6 1 1 617 269 43
1052 2 5 10 6 2 1 -2 173 503 371
1053 2 4 10 6 1 2 428 525 226
1054 2 4 10 6 1 2 127 611 524
1055 2 4 10 6 1 2 524 198 231
1056 2 4 10 6 1 2 563 198 524
1057 2 4 10 6 1 2 563 524 611
1058 2 4 10 6 1 1 319 340 275
1059 2 4 10 6 1 1 334 340 319
1060 2 4 10 6 1 1 38 39 439
1061 2 4 10 6 1 1 39 314 439
1062 2 4 10 6 1 1 285 539 315
1063 2 4 10 6 1 2 596 157 294
1064 2 4 10 6 1 2 157 596 548
1065 2 4 10 6 1 2 596 241 548
1066 2 4 10 6 1 2 92 554 91
1067 2 4 10 6 1 2 554 593 91
1068 2 4 10 6 1 1 247 558 267
1069 2 4 10 6 1 2 626 548 205
1070 2 4 10 6 1 2 252 548 499
1071 2 4 10 6 1 2 548 252 157
1072 2 4 10 6 1 2 499 548 626
1073 2 4 10 6 1 2 17 616 308
1074 2 4 10 6 1 2 653 221 103
1075 2 4 10 6 1 2 653 251 228
1076 2 4 10 6 1 2 251 653 103
1077 2 4 10 6 1 2 567 211 212
1078 2 4 10 6 1 2 518 211 567
1079 2 4 10 6 1 2 567 252 101
1080 2 4 10 6 1 2 101 518 567
1081 2 4 10 6 1 2 258 630 510
1082 2 4 10 6 1 2 276 510 305
1083 2 4 10 6 1 2 510 276 7
1084 2 4 10 6 1 2 630 305 510
1085 2 4 10 6 1 2 601 205 241
1086 2 4 10 6 1 2 205 601 405
1087 2 4 10 6 1 2 493 405 601
1088 2 4 10 6 1 2 100 407 380
1089 2 4 10 6 1 2 625 166 328
1090 2 4 10 6 1 2 333 166 625
1091 2 4 10 6 1 2 625 332 333
1092 2 4 10 6 1 2 29 625 28
1093 2 4 10 6 1 2 29 332 625
1094 2 4 10 6 1 2 248 647 616
1095 2 4 10 6 1 2 248 622 647
1096 2 4 10 6 1 2 18 616 17
1097 2 4 10 6 1 2 18 613 616
1098 2 4 10 6 1 1 60 569 59
1099 2 4 10 6 1 2 328 113 662
1100 2 4 10 6 1 2 667 12 263
1101 2 4 10 6 1 2 570 667 263
1102 2 4 10 6 1 2 304 668 85
1103 2 4 10 6 1 2 426 668 365
1104 2 4 10 6 1 2 668 304 365
1105 2 4 10 6 1 2 284 669 107
1106 2 4 10 6 1 1 670 225 219
1107 2 4 10 6 1 1 547 670 219
1108 2 4 10 6 1 2 660 671 640
1109 2 4 10 6 1 2 278 672 130
1110 2 4 10 6 1 2 284 672 669
1111 2 4 10 6 1 2 672 284 130
1112 2 4 10 6 1 2 305 673 276
1113 2 4 10 6 1 2 240 675 246
1114 2 4 10 6 1 2 675 606 246
1115 2 4 10 6 1 1 676 285 81
1116 2 4 10 6 1 1 285 676 539
1117 2 4 10 6 1 1 677 289 282
1118 2 4 10 6 1 1 542 678 645
1119 2 4 10 6 1 1 102 679 558
1120 2 4 10 6 1 1 267 679 536
1121 2 4 10 6 1 1 679 267 558
1122 2 4 10 6 1 1 679 102 536
1123 2 4 10 6 1 1 97 682 345
1124 2 4 10 6 1 1 346 682 372
1125 2 4 10 6 1 1 682 346 345
1126 2 4 10 6 1 1 682 97 372
1127 2 4 10 6 1 1 683 273 78
1128 2 4 10 6 1 1 273 683 259
1129 2 4 10 6 1 2 684 525 428
1130 2 4 10 6 1 2 525 684 204
1131 2 4 10 6 1 2 380 684 428
1132 2 4 10 6 1 2 299 685 629
1133 2 4 10 6 1 2 685 299 107
1134 2 4 10 6 1 2 687 305 136
1135 2 4 10 6 1 1 689 378 122
1136 2 4 10 6 1 1 539 689 122
1137 2 5 10 6 2 1 -2 378 689 413
1138 2 4 10 6 1 1 690 329 273
1139 2 4 10 6 1 1 692 97 352
1140 2 4 10 6 1 1 692 347 392
1141 2 4 10 6 1 1 347 692 352
1142 2 4 10 6 1 1 97 692 392
1143 2 4 10 6 1 2 307 693 145
1144 2 4 10 6 1 2 693 504 145
1145 2 4 10 6 1 2 694 603 279
1146 2 4 10 6 1 2 603 694 187
1147 2 4 10 6 1 2 103 696 614
1148 2 4 10 6 1 2 278 696 686
1149 2 4 10 6 1 2 696 278 614
1150 2 4 10 6 1 1 697 257 138
1151 2 4 10 6 1 1 697 301 288
1152 2 4 10 6 1 1 301 697 138
1153 2 4 10 6 1 1 257 697 288
1154 2 4 10 6 1 1 698 435 490
1155 2 4 10 6 1 1 74 699 50
1156 2 4 10 6 1 1 699 73 50
1157 2 4 10 6 1 1 699 74 327
1158 2 4 10 6 1 2 27 700 1
1159 2 4 10 6 1 2 700 25 1
1160 2 4 10 6 1 2 700 27 662
1161 2 4 10 6 1 2 701 21 271
1162 2 4 10 6 1 2 237 701 271
1163 2 4 10 6 1 2 702 274 140
1164 2 4 10 6 1 2 465 703 290
1165 2 4 10 6 1 2 703 504 290
1166 2 4 10 6 1 1 705 282 265
1167 2 4 10 6 1 1 261 705 265
1168 2 4 10 6 1 2 554 706 680
1169 2 4 10 6 1 2 706 554 92
1170 2 4 10 6 1 2 694 707 187
1171 2 4 10 6 1 2 694 191 707
1172 2 4 10 6 1 1 705 628 99
1173 2 4 10 6 1 1 261 628 705
1174 2 4 10 6 1 1 695 705 99
1175 2 4 10 6 1 1 695 282 705
1176 2 4 10 6 1 1 677 695 249
1177 2 4 10 6 1 1 677 282 695
1178 2 4 10 6 1 2 669 685 107
1179 2 4 10 6 1 2 694 133 191
1180 2 4 10 6 1 2 279 133 694
1181 2 4 10 6 1 2 673 305 687
1182 2 4 10 6 1 2 93 706 92
1183 2 4 10 6 1 1 238 678 542
1184 2 4 10 6 1 2 248 671 622
1185 2 4 10 6 1 2 248 640 671
1186 2 5 10 6 2 2 -1 36 666 35
1187 2 4 10 6 1 2 668 84 85
1188 2 4 10 6 1 2 426 84 668
1189 2 4 10 6 1 1 62 678 61
1190 2 4 10 6 1 1 62 645 678
1191 2 4 10 6 1 1 98 670 547
1192 2 4 10 6 1 1 165 690 326
1193 2 4 10 6 1 1 165 329 690
1194 2 4 10 6 1 2 673 153 276
1195 2 4 10 6 1 2 331 153 673
1196 2 4 10 6 1 1 98 698 490
1197 2 4 10 6 1 1 98 547 698
1198 2 4 10 6 1 2 700 113 25
1199 2 4 10 6 1 2 662 113 700
1200 2 4 10 6 1 1 699 112 73
1201 2 4 10 6 1 1 327 112 699
1202 2 4 10 6 1 2 707 407 187
1203 2 4 10 6 1 2 380 407 707
1204 2 4 10 6 1 2 674 665 704
1205 2 4 10 6 1 2 686 672 278
1206 2 4 10 6 1 2 669 672 686
1207 2 4 10 6 1 2 704 680 706
1208 2 4 10 6 1 2 643 696 103
1209 2 4 10 6 1 2 686 696 643
1210 2 4 10 6 1 2 691 10 11
1211 2 4 10 6 1 2 509 691 127
1212 2 4 10 6 1 2 10 691 400
1213 2 4 10 6 1 2 691 509 400
1214 2 4 10 6 1 2 637 629 643
1215 2 4 10 6 1 2 643 629 685
1216 2 4 10 6 1 2 127 691 570
1217 2 4 10 6 1 2 667 570 691
1218 2 4 10 6 1 2 701 20 21
1219 2 4 10 6 1 2 20 701 602
1220 2 4 10 6 1 2 243 701 237
1221 2 4 10 6 1 2 243 602 701
1222 2 4 10 6 1 2 674 318 161
1223 2 4 10 6 1 2 166 703 465
1224 2 4 10 6 1 2 703 166 333
1225 2 4 10 6 1 2 145 504 703
1226 2 4 10 6 1 2 145 703 333
1227 2 4 10 6 1 2 240 688 675
1228 2 4 10 6 1 2 631 675 218
1229 2 4 10 6 1 2 688 218 675
1230 2 4 10 6 1 1 320 646 65
1231 2 4 10 6 1 1 646 320 652
1232 2 4 10 6 1 1 695 99 604
1233 2 4 10 6 1 1 695 227 249
1234 2 4 10 6 1 1 227 695 604
1235 2 4 10 6 1 2 221 643 103
1236 2 4 10 6 1 2 643 221 533
1237 2 4 10 6 1 2 643 533 637
1238 2 4 10 6 1 2 573 680 140
1239 2 4 10 6 1 2 680 702 140
1240 2 4 10 6 1 2 631 560 606
1241 2 4 10 6 1 2 631 606 675
1242 2 4 10 6 1 1 698 210 435
1243 2 4 10 6 1 1 210 698 235
1244 2 4 10 6 1 1 698 547 235
1245 2 4 10 6 1 1 527 58 59
1246 2 4 10 6 1 1 527 59 569
1247 2 4 10 6 1 1 527 569 551
1248 2 4 10 6 1 2 693 284 108
1249 2 4 10 6 1 2 284 693 307
1250 2 4 10 6 1 2 504 693 108
1251 2 4 10 6 1 2 593 573 355
1252 2 4 10 6 1 2 680 593 554
1253 2 4 10 6 1 2 573 593 680
1254 2 4 10 6 1 1 587 190 523
1255 2 4 10 6 1 1 651 190 587
1256 2 4 10 6 1 1 250 587 523
1257 2 5 10 6 2 2 -1 649 240 591
1258 2 4 10 6 1 1 617 572 513
1259 2 4 10 6 1 2 493 601 584
1260 2 4 10 6 1 2 663 584 601
1261 2 4 10 6 1 1 82 676 81
1262 2 4 10 6 1 2 622 644 131
1263 2 4 10 6 1 2 622 671 644
1264 2 4 10 6 1 1 677 151 289
1265 2 4 10 6 1 1 151 677 320
1266 2 4 10 6 1 1 652 677 249
1267 2 4 10 6 1 1 652 320 677
1268 2 4 10 6 1 2 331 681 167
1269 2 4 10 6 1 1 576 234 638
1270 2 4 10 6 1 1 576 502 464
1271 2 4 10 6 1 1 638 502 576
1272 2 4 10 6 1 1 213 628 261
1273 2 4 10 6 1 1 628 213 481
1274 2 4 10 6 1 1 481 575 628
1275 2 4 10 6 1 2 303 707 191
1276 2 4 10 6 1 2 684 707 204
1277 2 4 10 6 1 2 204 707 131
1278 2 4 10 6 1 2 380 707 684
1279 2 4 10 6 1 2 707 303 131
1280 2 4 10 6 1 2 311 316 236
1281 2 4 10 6 1 2 311 312 316
1282 2 4 10 6 1 2 312 324 316
1283 2 4 10 6 1 2 574 584 663
1284 2 4 10 6 1 1 44 45 517
1285 2 4 10 6 1 1 572 44 517
1286 2 4 10 6 1 1 44 572 617
1287 2 4 10 6 1 1 227 564 233
1288 2 4 10 6 1 1 604 564 227
1289 2 4 10 6 1 1 604 618 564
1290 2 4 10 6 1 1 61 678 60
1291 2 4 10 6 1 1 238 569 678
1292 2 4 10 6 1 1 60 678 569
1293 2 4 10 6 1 2 585 611 546
1294 2 4 10 6 1 2 563 611 585
1295 2 4 10 6 1 2 530 632 132
1296 2 4 10 6 1 1 604 99 628
1297 2 4 10 6 1 1 628 575 507
1298 2 4 10 6 1 1 604 628 507
1299 2 4 10 6 1 2 5 579 610
1300 2 4 10 6 1 2 579 153 167
1301 2 4 10 6 1 2 610 579 167
1302 2 5 10 6 2 2 -1 505 566 609
1303 2 5 10 6 2 2 -1 566 571 609
1304 2 4 10 6 1 2 571 599 609
1305 2 4 10 6 1 1 259 658 126
1306 2 4 10 6 1 1 80 285 658
1307 2 4 10 6 1 1 658 79 80
1308 2 5 10 6 2 2 -1 246 648 125
1309 2 5 10 6 2 1 -2 648 317 125
1310 2 4 10 6 1 1 559 335 287
1311 2 4 10 6 1 1 650 335 559
1312 2 4 10 6 1 1 340 559 288
1313 2 4 10 6 1 1 340 650 559
1314 2 4 10 6 1 1 540 565 296
1315 2 4 10 6 1 1 477 577 565
1316 2 4 10 6 1 1 540 477 565
1317 2 4 10 6 1 1 558 555 106
1318 2 4 10 6 1 2 667 11 12
1319 2 4 10 6 1 2 691 11 667
1320 2 4 10 6 1 2 708 687 253
1321 2 4 10 6 1 2 709 525 204
1322 2 4 10 6 1 2 525 709 586
1323 2 4 10 6 1 2 673 710 331
1324 2 4 10 6 1 1 82 711 676
1325 2 4 10 6 1 1 152 713 247
1326 2 4 10 6 1 1 558 713 555
1327 2 4 10 6 1 1 713 558 247
1328 2 4 10 6 1 1 713 152 555
1329 2 4 10 6 1 2 714 139 242
1330 2 4 10 6 1 2 644 714 242
1331 2 4 10 6 1 2 715 136 264
1332 2 4 10 6 1 2 715 253 687
1333 2 4 10 6 1 2 136 715 687
1334 2 4 10 6 1 1 716 315 126
1335 2 4 10 6 1 1 716 658 285
1336 2 4 10 6 1 1 658 716 126
1337 2 4 10 6 1 1 315 716 285
1338 2 4 10 6 1 2 253 578 708
1339 2 4 10 6 1 2 715 657 253
1340 2 4 10 6 1 2 264 657 715
1341 2 4 10 6 1 2 131 709 204
1342 2 4 10 6 1 2 131 644 709
1343 2 4 10 6 1 2 709 242 586
1344 2 4 10 6 1 2 644 242 709
1345 2 5 10 6 2 1 -2 413 689 711
1346 2 4 10 6 1 1 711 539 676
1347 2 4 10 6 1 1 689 539 711
1348 2 4 10 6 1 2 665 717 712
1349 2 4 10 6 1 2 717 681 331
1350 2 4 10 6 1 2 710 717 331
1351 2 4 10 6 1 2 712 274 702
1352 2 4 10 6 1 2 710 687 708
1353 2 4 10 6 1 2 687 710 673
1354 2 4 10 6 1 2 714 644 671
1355 2 4 10 6 1 2 660 714 671
1356 2 4 10 6 1 2 714 660 139
1357 2 4 10 6 1 2 643 685 686
1358 2 4 10 6 1 2 686 685 669
1359 2 4 10 6 1 1 683 78 79
1360 2 4 10 6 1 1 683 79 658
1361 2 4 10 6 1 1 259 683 658
1362 2 5 10 6 2 1 -2 711 82 83
1363 2 5 10 6 2 2 -1 426 413 83
1364 2 5 10 6 2 1 -2 413 711 83
1365 2 4 10 6 1 2 560 34 35
1366 2 4 10 6 1 2 666 560 35
1367 2 4 10 6 1 2 666 606 560
1368 2 5 10 6 2 2 -1 36 648 666
1369 2 4 10 6 1 2 246 606 666
1370 2 5 10 6 2 2 -1 648 246 666
1371 2 4 10 6 1 1 67 245 151
1372 2 4 10 6 1 2 702 704 665
1373 2 4 10 6 1 2 665 712 702
1374 2 4 10 6 1 2 704 702 680
1375 2 4 10 6 1 2 642 214 546
1376 2 4 10 6 1 2 530 546 263
1377 2 4 10 6 1 2 546 570 263
1378 2 4 10 6 1 2 546 530 642
1379 2 5 10 6 2 1 -2 225 503 591
1380 2 5 10 6 2 2 -1 591 503 228
1381 2 5 10 6 2 2 -1 649 591 228
1382 2 4 10 6 1 2 240 649 688
1383 2 4 10 6 1 2 649 251 688
1384 2 4 10 6 1 2 688 251 614
1385 2 4 10 6 1 2 688 614 218
1386 2 4 10 6 1 2 93 318 706
1387 2 4 10 6 1 2 318 674 706
1388 2 4 10 6 1 2 674 704 706
1389 2 4 10 6 1 2 294 274 578
1390 2 4 10 6 1 2 274 712 578
1391 2 4 10 6 1 2 712 708 578
1392 2 4 10 6 1 2 469 520 580
1393 2 4 10 6 1 2 520 584 580
1394 2 4 10 6 1 2 620 279 132
1395 2 4 10 6 1 2 279 620 281
1396 2 4 10 6 1 2 632 620 132
1397 2 4 10 6 1 1 273 341 690
1398 2 4 10 6 1 1 341 339 690
1399 2 4 10 6 1 1 690 339 326
1400 2 4 10 6 1 1 670 98 371
1401 2 5 10 6 2 1 -2 670 503 225
1402 2 5 10 6 2 1 -2 371 503 670
1403 2 4 10 6 1 2 33 718 316
1404 2 4 10 6 1 2 236 718 560
1405 2 4 10 6 1 2 718 236 316
1406 2 4 10 6 1 1 719 110 106
1407 2 4 10 6 1 1 719 555 262
1408 2 4 10 6 1 1 555 719 106
1409 2 4 10 6 1 1 110 719 262
1410 2 4 10 6 1 1 244 68 69
1411 2 4 10 6 1 1 68 244 245
1412 2 4 10 6 1 1 245 67 68
1413 2 4 10 6 1 2 33 34 718
1414 2 4 10 6 1 2 34 560 718
1415 2 4 10 6 1 2 516 552 585
1416 2 4 10 6 1 2 623 552 516
1417 2 4 10 6 1 2 580 552 455
1418 2 4 10 6 1 2 623 455 552
1419 2 4 10 6 1 2 710 708 712
1420 2 4 10 6 1 2 710 712 717
1421 2 4 10 6 1 2 674 681 665
1422 2 4 10 6 1 2 681 717 665
1423 2 4 10 6 1 2 720 574 619
1424 2 4 10 6 1 2 720 552 580
1425 2 4 10 6 1 2 584 720 580
1426 2 4 10 6 1 2 720 584 574
1427 2 4 10 6 1 2 585 552 563
1428 2 4 10 6 1 2 720 563 552
1429 2 4 10 6 1 2 619 563 720
1430 2 4 10 6 1 2 96 721 95
1431 2 4 10 6 1 2 167 722 163
1432 2 4 10 6 1 2 722 167 681
1433 2 4 10 6 1 2 3 723 2
1434 2 4 10 6 1 2 723 96 2
1435 2 4 10 6 1 2 721 161 95
1436 2 4 10 6 1 2 96 723 721
1437 2 4 10 6 1 2 723 163 721
1438 2 4 10 6 1 2 163 723 3
1439 2 4 10 6 1 2 722 721 163
1440 2 4 10 6 1 2 722 674 161
1441 2 4 10 6 1 2 722 161 721
1442 2 4 10 6 1 2 722 681 674
1443 2 4 10 6 1 1 158 334 319
1444 2 4 10 6 1 1 158 654 334
$EndElements
